<svg width="231" height="220" viewBox="0 0 231 220" fill="none" xmlns="http://www.w3.org/2000/svg">
<g filter="url(#filter0_d_513_548)">
<rect x="30" y="26" width="171" height="160" rx="25" fill="url(#paint0_linear_513_548)" shape-rendering="crispEdges"/>
</g>
<path d="M172.614 102.614L116 46L59.3859 102.614C58.4983 103.505 58 104.712 58 105.97C58 107.227 58.4983 108.434 59.3859 109.325L116 165.939L172.614 109.325C173.502 108.434 174 107.227 174 105.97C174 104.712 173.502 103.505 172.614 102.614ZM116 123.695L98.2686 105.964L116 88.2323L133.731 105.964L116 123.695Z" fill="#2684FF"/>
<path d="M116 88.3494C110.423 82.7731 107.279 75.2166 107.255 67.3301C107.231 59.4436 110.329 51.868 115.871 46.2577L76.9536 84.9296L98.0697 106.046L116 88.3494Z" fill="url(#paint1_linear_513_548)"/>
<path d="M133.778 105.917L116 123.695C118.774 126.468 120.975 129.759 122.476 133.383C123.978 137.006 124.751 140.889 124.751 144.811C124.751 148.733 123.978 152.617 122.476 156.24C120.975 159.863 118.774 163.155 116 165.927L154.883 127.045L133.778 105.917Z" fill="url(#paint2_linear_513_548)"/>
<defs>
<filter id="filter0_d_513_548" x="0" y="0" width="231" height="220" filterUnits="userSpaceOnUse" color-interpolation-filters="sRGB">
<feFlood flood-opacity="0" result="BackgroundImageFix"/>
<feColorMatrix in="SourceAlpha" type="matrix" values="0 0 0 0 0 0 0 0 0 0 0 0 0 0 0 0 0 0 127 0" result="hardAlpha"/>
<feOffset dy="4"/>
<feGaussianBlur stdDeviation="15"/>
<feComposite in2="hardAlpha" operator="out"/>
<feColorMatrix type="matrix" values="0 0 0 0 0.311538 0 0 0 0 0.311538 0 0 0 0 0.311538 0 0 0 0.25 0"/>
<feBlend mode="normal" in2="BackgroundImageFix" result="effect1_dropShadow_513_548"/>
<feBlend mode="normal" in="SourceGraphic" in2="effect1_dropShadow_513_548" result="shape"/>
</filter>
<linearGradient id="paint0_linear_513_548" x1="115.5" y1="26" x2="115.5" y2="186" gradientUnits="userSpaceOnUse">
<stop stop-color="white"/>
<stop offset="1" stop-color="white" stop-opacity="0"/>
</linearGradient>
<linearGradient id="paint1_linear_513_548" x1="112.838" y1="70.3017" x2="88.0797" y2="95.0602" gradientUnits="userSpaceOnUse">
<stop offset="0.18" stop-color="#0052CC"/>
<stop offset="1" stop-color="#2684FF"/>
</linearGradient>
<linearGradient id="paint2_linear_513_548" x1="119.385" y1="141.427" x2="144.096" y2="116.715" gradientUnits="userSpaceOnUse">
<stop offset="0.18" stop-color="#0052CC"/>
<stop offset="1" stop-color="#2684FF"/>
</linearGradient>
</defs>
</svg>
