<svg width="486" height="290" viewBox="0 0 486 290" fill="none" xmlns="http://www.w3.org/2000/svg">
<rect y="46" width="448" height="244" rx="25" fill="url(#paint0_linear_513_547)"/>
<rect x="1" y="47" width="446" height="242" rx="24" stroke="#E3E3E3" stroke-opacity="0.29" stroke-width="2"/>
<path d="M0 25C0 11.1929 11.1929 0 25 0H423C436.807 0 448 11.1929 448 25V92H0V25Z" fill="#0052CA"/>
<path d="M107.397 37.4293H109.862V49.9395C109.862 53.252 108.411 55.5403 105.013 55.5403C104.008 55.5553 103.008 55.3972 102.057 55.0729V52.6749C102.868 52.9897 103.732 53.1483 104.603 53.1423C106.684 53.1423 107.403 51.8966 107.403 50.1021L107.397 37.4293ZM114.351 36.4681C114.575 36.4536 114.798 36.4859 115.008 36.5628C115.218 36.6398 115.41 36.7598 115.571 36.9152C115.727 37.0715 115.847 37.2594 115.924 37.4662C116.001 37.673 116.033 37.894 116.018 38.1142C116.017 38.55 115.844 38.9679 115.536 39.2761C115.228 39.5843 114.81 39.7577 114.374 39.7582C113.938 39.7577 113.52 39.5843 113.212 39.2761C112.904 38.9679 112.73 38.55 112.73 38.1142C112.715 37.891 112.748 37.6673 112.824 37.4573C112.901 37.2473 113.021 37.0557 113.177 36.8949C113.333 36.739 113.521 36.6184 113.728 36.5413C113.935 36.4642 114.156 36.4323 114.376 36.4478L114.351 36.4681ZM113.146 41.7274H115.504V55.4204H113.146V41.7274Z" fill="white"/>
<path d="M119.06 41.7235H121.361V44.1316C122.173 42.516 123.539 41.3678 126.209 41.5304V43.8309C123.198 43.5199 121.361 44.4344 121.361 47.3344V55.4225H119.06V41.7235Z" fill="white"/>
<path d="M137.24 52.9514C136.362 54.7803 134.72 55.6908 132.613 55.6908C128.971 55.6908 127.136 52.5978 127.136 48.5699C127.136 44.7088 129.052 41.4491 132.887 41.4491C134.885 41.4491 136.419 42.3514 137.244 44.1316V41.7235H139.601V55.4164H137.244L137.24 52.9514ZM133.241 53.5001C135.35 53.5001 137.24 52.1588 137.24 49.1186V48.0111C137.24 44.9709 135.517 43.6297 133.505 43.6297C130.847 43.6297 129.481 45.3814 129.481 48.5598C129.493 51.858 130.806 53.5021 133.247 53.5021L133.241 53.5001ZM153.538 55.6908C150.059 55.6908 148.444 55.0059 147.047 54.2926V51.7727C148.718 52.6506 151.315 53.2765 153.672 53.2765C156.383 53.2765 157.408 52.2096 157.408 50.6184C157.408 49.0272 156.422 48.1798 152.998 47.3608C148.933 46.3752 147.139 44.977 147.139 42.0202C147.139 39.2198 149.273 37.1469 153.465 37.1469C156.066 37.1469 157.737 37.7688 158.952 38.4597V40.9512C157.239 40.0073 155.307 39.5346 153.351 39.5815C150.994 39.5815 149.598 40.4025 149.598 42.0466C149.598 43.524 150.75 44.2657 153.922 45.0583C157.729 46.0175 159.867 47.2368 159.867 50.4802C159.846 53.6017 157.987 55.7111 153.522 55.7111L153.538 55.6908ZM161.946 48.5415C161.946 44.4364 164.354 41.4288 168.463 41.4288C172.572 41.4288 174.925 44.4161 174.925 48.5415C174.925 52.6669 172.541 55.6989 168.463 55.6989C164.384 55.6989 161.946 52.6506 161.946 48.5415ZM164.246 48.5415C164.246 51.1427 165.534 53.5001 168.463 53.5001C171.391 53.5001 172.629 51.1427 172.629 48.5415C172.629 45.9403 171.369 43.652 168.463 43.652C165.557 43.652 164.256 45.9403 164.256 48.5415H164.246ZM180.92 41.7235H184.452V43.902H180.92V55.4164H178.62V43.902H176.392V41.7235H178.612V40.2298C178.612 37.6835 180.034 35.9581 182.969 35.9581C183.505 35.9561 184.04 36.0292 184.554 36.1756V38.3541C184.067 38.2617 183.572 38.2162 183.076 38.2179C181.625 38.2179 180.898 39.0674 180.898 40.2989L180.92 41.7235ZM192.422 53.116C192.92 53.1021 193.415 53.0374 193.9 52.9229V55.1949C193.384 55.3424 192.849 55.4156 192.313 55.4124C189.382 55.4124 187.956 53.6891 187.956 51.1407V43.9142H185.728V41.7357H187.948V38.8174H190.248V41.7235H193.89V43.902H190.248V51.1122C190.26 52.3173 190.973 53.1383 192.422 53.1383V53.116ZM194.56 41.7235H197.162L201.104 53.3334L205.099 41.7235H207.347L211.346 53.3334L215.293 41.7235H217.894L212.854 55.4164H209.842L207.485 48.7915L206.239 44.5746L204.994 48.7915L202.606 55.4164H199.594L194.56 41.7235ZM228.648 52.9514C227.771 54.7803 226.128 55.6908 224.021 55.6908C220.379 55.6908 218.544 52.5978 218.544 48.5699C218.544 44.7088 220.461 41.4491 224.295 41.4491C226.293 41.4491 227.827 42.3514 228.653 44.1316V41.7235H231.01V55.4164H228.653L228.648 52.9514ZM224.649 53.5001C226.758 53.5001 228.648 52.1588 228.648 49.1186V48.0111C228.648 44.9709 226.925 43.6297 224.913 43.6297C222.267 43.6541 220.89 45.3936 220.89 48.572C220.89 51.858 222.21 53.5001 224.649 53.5001Z" fill="white"/>
<path d="M234.566 41.7235H236.867V44.1316C237.68 42.516 239.045 41.3678 241.716 41.5304V43.8309C238.704 43.5199 236.867 44.4344 236.867 47.3344V55.4225H234.566V41.7235Z" fill="white"/>
<path d="M250.011 55.6908C244.89 55.6908 242.644 52.7339 242.644 48.5334C242.644 44.3978 244.944 41.4207 249.106 41.4207C253.323 41.4207 255 44.3511 255 48.5334V49.6003H245.007C245.337 51.9271 246.843 53.435 250.074 53.435C251.494 53.4341 252.904 53.1838 254.238 52.6953V54.8738C253.114 55.4835 251.387 55.6928 249.97 55.6928L250.011 55.6908ZM245.001 47.6026H252.634C252.498 45.0563 251.346 43.6032 248.993 43.6032C246.505 43.591 245.245 45.2127 244.999 47.5863L245.001 47.6026Z" fill="white"/>
<path d="M95.8345 44.0494L65.785 14L35.7356 44.0494C35.2645 44.5224 35 45.1628 35 45.8304C35 46.498 35.2645 47.1384 35.7356 47.6114L65.785 77.6608L95.8345 47.6114C96.3055 47.1384 96.57 46.498 96.57 45.8304C96.57 45.1628 96.3055 44.5224 95.8345 44.0494ZM65.785 55.2387L56.3736 45.8273L65.785 36.4159L75.1964 45.8273L65.785 55.2387Z" fill="#2684FF"/>
<path d="M65.7846 36.4781C62.8245 33.5184 61.1558 29.5075 61.143 25.3216C61.1302 21.1356 62.7743 17.1146 65.7162 14.1368L45.0596 34.663L56.2675 45.8709L65.7846 36.4781Z" fill="url(#paint1_linear_513_547)"/>
<path d="M75.2214 45.8024L65.7852 55.2386C67.2576 56.7102 68.4257 58.4574 69.2226 60.3805C70.0196 62.3036 70.4298 64.3649 70.4298 66.4466C70.4298 68.5283 70.0196 70.5896 69.2226 72.5127C68.4257 74.4358 67.2576 76.183 65.7852 77.6545L86.4232 57.0165L75.2214 45.8024Z" fill="url(#paint2_linear_513_547)"/>
<rect x="26" y="120" width="179" height="125" rx="10" fill="#E4E4E4"/>
<rect x="216" y="124" width="210" height="20" rx="5" fill="#E4E4E4"/>
<rect x="216" y="156" width="210" height="20" rx="5" fill="#E4E4E4"/>
<rect x="216" y="188" width="210" height="20" rx="5" fill="#E4E4E4"/>
<rect x="216" y="220" width="163" height="20" rx="5" fill="#E4E4E4"/>
<rect x="331" y="66" width="155" height="46" rx="10" fill="#D7FFD0"/>
<path d="M397.705 99H391.517V81.5455H397.756C399.511 81.5455 401.023 81.8949 402.29 82.5938C403.557 83.2869 404.531 84.2841 405.213 85.5852C405.901 86.8864 406.244 88.4432 406.244 90.2557C406.244 92.0739 405.901 93.6364 405.213 94.9432C404.531 96.25 403.551 97.2528 402.273 97.9517C401 98.6506 399.477 99 397.705 99ZM395.207 95.8381H397.551C398.642 95.8381 399.56 95.6449 400.304 95.2585C401.054 94.8665 401.616 94.2614 401.991 93.4432C402.372 92.6193 402.562 91.5568 402.562 90.2557C402.562 88.9659 402.372 87.9119 401.991 87.0938C401.616 86.2756 401.057 85.6733 400.312 85.2869C399.568 84.9006 398.651 84.7074 397.56 84.7074H395.207V95.8381ZM425.018 90.2727C425.018 92.1761 424.657 93.7955 423.935 95.1307C423.219 96.4659 422.242 97.4858 421.004 98.1903C419.771 98.8892 418.384 99.2386 416.844 99.2386C415.293 99.2386 413.901 98.8864 412.668 98.1818C411.435 97.4773 410.461 96.4574 409.745 95.1222C409.029 93.7869 408.671 92.1705 408.671 90.2727C408.671 88.3693 409.029 86.75 409.745 85.4148C410.461 84.0795 411.435 83.0625 412.668 82.3636C413.901 81.6591 415.293 81.3068 416.844 81.3068C418.384 81.3068 419.771 81.6591 421.004 82.3636C422.242 83.0625 423.219 84.0795 423.935 85.4148C424.657 86.75 425.018 88.3693 425.018 90.2727ZM421.276 90.2727C421.276 89.0398 421.092 88 420.722 87.1534C420.359 86.3068 419.844 85.6648 419.18 85.2273C418.515 84.7898 417.737 84.571 416.844 84.571C415.952 84.571 415.174 84.7898 414.509 85.2273C413.844 85.6648 413.327 86.3068 412.958 87.1534C412.594 88 412.413 89.0398 412.413 90.2727C412.413 91.5057 412.594 92.5455 412.958 93.392C413.327 94.2386 413.844 94.8807 414.509 95.3182C415.174 95.7557 415.952 95.9744 416.844 95.9744C417.737 95.9744 418.515 95.7557 419.18 95.3182C419.844 94.8807 420.359 94.2386 420.722 93.392C421.092 92.5455 421.276 91.5057 421.276 90.2727ZM442.351 81.5455V99H439.163L431.57 88.0142H431.442V99H427.751V81.5455H430.99L438.524 92.5227H438.678V81.5455H442.351ZM445.4 99V81.5455H457.161V84.5881H449.09V88.7472H456.556V91.7898H449.09V95.9574H457.195V99H445.4Z" fill="#47C227"/>
<circle cx="362.5" cy="89.5" r="13.5" fill="#47C227"/>
<defs>
<linearGradient id="paint0_linear_513_547" x1="224" y1="46" x2="224" y2="290" gradientUnits="userSpaceOnUse">
<stop offset="0.485577" stop-color="white"/>
<stop offset="1" stop-color="white" stop-opacity="0"/>
</linearGradient>
<linearGradient id="paint1_linear_513_547" x1="64.1062" y1="26.8988" x2="50.965" y2="40.04" gradientUnits="userSpaceOnUse">
<stop offset="0.18" stop-color="#0052CC"/>
<stop offset="1" stop-color="#2684FF"/>
</linearGradient>
<linearGradient id="paint2_linear_513_547" x1="67.5817" y1="64.6501" x2="80.698" y2="51.5338" gradientUnits="userSpaceOnUse">
<stop offset="0.18" stop-color="#0052CC"/>
<stop offset="1" stop-color="#2684FF"/>
</linearGradient>
</defs>
</svg>
