<svg width="269" height="248" viewBox="0 0 269 248" fill="none" xmlns="http://www.w3.org/2000/svg">
<g clip-path="url(#clip0_566_14639)">
<path fill-rule="evenodd" clip-rule="evenodd" d="M199.773 217.199L257.689 183.681L258.092 183.904V188.279L199.773 222.105V217.199Z" fill="url(#paint0_linear_566_14639)"/>
<path fill-rule="evenodd" clip-rule="evenodd" d="M199.786 217.199L141.87 183.681L141.467 183.904V188.279L199.786 222.105V217.199Z" fill="url(#paint1_linear_566_14639)"/>
<path d="M141.774 183.904L199.778 150.564L257.782 183.904L199.778 217.244L141.774 183.904Z" fill="url(#paint2_linear_566_14639)" stroke="url(#paint3_linear_566_14639)" stroke-width="0.379178" stroke-linecap="round"/>
<path fill-rule="evenodd" clip-rule="evenodd" d="M199.456 152.927C199.646 152.817 199.881 152.817 200.071 152.927L253.284 183.579C253.489 183.697 253.489 183.992 253.284 184.11L200.071 214.763C199.881 214.872 199.646 214.872 199.456 214.763L146.243 184.11C146.038 183.992 146.038 183.697 146.243 183.579L199.456 152.927Z" fill="url(#paint4_linear_566_14639)"/>
<mask id="mask0_566_14639" style="mask-type:luminance" maskUnits="userSpaceOnUse" x="146" y="152" width="108" height="63">
<path fill-rule="evenodd" clip-rule="evenodd" d="M199.456 152.927C199.646 152.817 199.881 152.817 200.071 152.927L253.284 183.579C253.489 183.697 253.489 183.992 253.284 184.11L200.071 214.763C199.881 214.872 199.646 214.872 199.456 214.763L146.243 184.11C146.038 183.992 146.038 183.697 146.243 183.579L199.456 152.927Z" fill="white"/>
</mask>
<g mask="url(#mask0_566_14639)">
<path fill-rule="evenodd" clip-rule="evenodd" d="M189.988 142.233L190.129 141.991L199.781 147.526L209.433 141.991L209.574 142.233L200.063 147.688L209.45 153.071L219.014 147.587L219.155 147.829L209.732 153.233L218.979 158.536L228.313 153.182L228.455 153.425L219.261 158.697L228.93 164.242L238.459 158.778L238.599 159.02L229.212 164.404L238.74 169.868L248.322 164.374L248.463 164.616L239.022 170.03L248.795 175.634L258.185 170.249L258.326 170.491L249.076 175.796L258.605 181.26L268.048 175.845L268.189 176.087L258.887 181.422L268.189 186.757L268.048 186.999L258.605 181.583L249.217 186.967L258.608 192.352L258.467 192.594L248.936 187.128L239.689 192.431L249.308 197.948L249.167 198.19L239.407 192.593L229.738 198.138L239.163 203.544L239.022 203.786L229.456 198.3L219.927 203.764L229.3 209.139L229.159 209.382L219.645 203.926L209.873 209.53L219.437 215.015L219.296 215.257L209.591 209.691L200.063 215.156L209.574 220.61L209.433 220.853L199.781 215.318L190.129 220.853L189.988 220.61L199.499 215.156L189.97 209.691L180.266 215.257L180.125 215.015L189.689 209.53L179.916 203.926L170.403 209.382L170.262 209.139L179.635 203.764L170.106 198.3L160.539 203.786L160.398 203.544L169.824 198.138L160.154 192.593L150.394 198.19L150.253 197.948L159.873 192.431L150.626 187.128L141.095 192.594L140.954 192.352L150.344 186.967L140.956 181.583L131.513 186.999L131.372 186.757L140.675 181.422L131.372 176.087L131.513 175.845L140.957 181.26L150.485 175.796L141.236 170.491L141.377 170.249L150.767 175.634L160.539 170.03L151.099 164.616L151.24 164.374L160.821 169.868L170.35 164.404L160.962 159.02L161.103 158.778L170.631 164.242L180.301 158.697L171.107 153.425L171.248 153.182L180.583 158.536L189.829 153.233L180.407 147.829L180.548 147.587L190.111 153.071L199.499 147.688L189.988 142.233ZM199.781 147.849L190.393 153.233L199.781 158.617L209.168 153.233L199.781 147.849ZM190.112 153.394L180.865 158.697L190.252 164.081L199.499 158.778L190.112 153.394ZM180.583 158.859L170.913 164.404L180.301 169.788L189.971 164.242L180.583 158.859ZM170.632 164.566L161.103 170.03L170.491 175.414L180.019 169.949L170.632 164.566ZM160.821 170.191L151.049 175.796L160.436 181.179L170.209 175.575L160.821 170.191ZM150.767 175.957L141.238 181.422L150.626 186.806L160.155 181.341L150.767 175.957ZM200.063 158.778L209.45 153.394L218.697 158.697L209.309 164.081L200.063 158.778ZM190.534 164.242L199.781 158.94L209.028 164.242L199.781 169.545L190.534 164.242ZM180.583 169.949L190.252 164.404L199.499 169.707L189.83 175.252L180.583 169.949ZM170.772 175.575L180.301 170.111L189.548 175.414L180.019 180.878L170.772 175.575ZM160.718 181.341L170.491 175.737L179.738 181.04L169.965 186.644L160.718 181.341ZM150.908 186.967L160.436 181.503L169.683 186.805L160.155 192.27L150.908 186.967ZM218.979 158.859L209.591 164.242L219.261 169.788L228.649 164.404L218.979 158.859ZM209.309 164.404L200.063 169.707L209.732 175.252L218.979 169.949L209.309 164.404ZM199.781 169.868L190.111 175.414L199.781 180.959L209.45 175.414L199.781 169.868ZM189.83 175.575L180.301 181.04L189.97 186.585L199.499 181.12L189.83 175.575ZM180.019 181.201L170.247 186.806L179.916 192.351L189.689 186.747L180.019 181.201ZM169.965 186.967L160.436 192.431L170.106 197.976L179.635 192.512L169.965 186.967ZM219.542 169.949L228.93 164.566L238.459 170.03L229.071 175.414L219.542 169.949ZM210.014 175.414L219.261 170.111L228.789 175.575L219.543 180.878L210.014 175.414ZM200.063 181.12L209.732 175.575L219.261 181.04L209.591 186.585L200.063 181.12ZM190.252 186.747L199.781 181.282L209.31 186.747L199.781 192.211L190.252 186.747ZM180.198 192.512L189.97 186.908L199.499 192.372L189.727 197.977L180.198 192.512ZM170.387 198.138L179.916 192.674L189.445 198.138L179.916 203.603L170.387 198.138ZM238.74 170.191L229.353 175.575L239.125 181.179L248.513 175.796L238.74 170.191ZM229.071 175.737L219.824 181.04L229.597 186.644L238.844 181.341L229.071 175.737ZM219.543 181.201L209.873 186.747L219.645 192.351L229.315 186.806L219.543 181.201ZM209.591 186.908L200.063 192.372L209.835 197.977L219.364 192.512L209.591 186.908ZM199.781 192.534L190.008 198.139L199.781 203.743L209.554 198.139L199.781 192.534ZM189.727 198.3L180.198 203.764L189.97 209.369L199.499 203.904L189.727 198.3ZM239.407 181.341L248.795 175.957L258.323 181.422L248.936 186.806L239.407 181.341ZM229.878 186.806L239.125 181.503L248.654 186.967L239.407 192.27L229.878 186.806ZM219.927 192.512L229.597 186.967L239.125 192.431L229.456 197.977L219.927 192.512ZM210.117 198.138L219.645 192.674L229.174 198.138L219.645 203.603L210.117 198.138ZM200.063 203.904L209.835 198.3L219.364 203.764L209.591 209.369L200.063 203.904ZM190.252 209.53L199.781 204.066L209.31 209.53L199.781 214.994L190.252 209.53Z" fill="white" fill-opacity="0.4"/>
</g>
<path fill-rule="evenodd" clip-rule="evenodd" d="M190.47 193.259C189.542 192.716 189.537 191.845 190.458 191.313C191.379 190.781 192.878 190.79 193.806 191.333C194.733 191.876 194.738 192.747 193.817 193.279C192.896 193.811 191.397 193.802 190.47 193.259Z" fill="#FF6300"/>
<path fill-rule="evenodd" clip-rule="evenodd" d="M190.47 193.259C189.542 192.716 189.537 191.845 190.458 191.313C191.379 190.781 192.878 190.79 193.806 191.333C194.733 191.876 194.738 192.747 193.817 193.279C192.896 193.811 191.397 193.802 190.47 193.259Z" stroke="white" stroke-width="0.758355"/>
<path fill-rule="evenodd" clip-rule="evenodd" d="M180.607 187.805C179.679 187.262 179.674 186.391 180.595 185.859C181.517 185.328 183.015 185.337 183.943 185.879C184.87 186.422 184.875 187.294 183.954 187.825C183.033 188.357 181.534 188.348 180.607 187.805Z" fill="#FF6300"/>
<path fill-rule="evenodd" clip-rule="evenodd" d="M180.607 187.805C179.679 187.262 179.674 186.391 180.595 185.859C181.517 185.328 183.015 185.337 183.943 185.879C184.87 186.422 184.875 187.294 183.954 187.825C183.033 188.357 181.534 188.348 180.607 187.805Z" stroke="white" stroke-width="0.758355"/>
<path fill-rule="evenodd" clip-rule="evenodd" d="M161.891 190.547C160.964 190.004 160.959 189.132 161.88 188.601C162.801 188.069 164.3 188.078 165.227 188.621C166.155 189.164 166.16 190.035 165.239 190.567C164.318 191.098 162.819 191.089 161.891 190.547Z" fill="#FF6300"/>
<path fill-rule="evenodd" clip-rule="evenodd" d="M161.891 190.547C160.964 190.004 160.959 189.132 161.88 188.601C162.801 188.069 164.3 188.078 165.227 188.621C166.155 189.164 166.16 190.035 165.239 190.567C164.318 191.098 162.819 191.089 161.891 190.547Z" stroke="white" stroke-width="0.758355"/>
<path fill-rule="evenodd" clip-rule="evenodd" d="M159.442 180.068C158.514 179.525 158.509 178.654 159.43 178.122C160.351 177.59 161.85 177.599 162.777 178.142C163.705 178.685 163.71 179.556 162.789 180.088C161.868 180.62 160.369 180.611 159.442 180.068Z" fill="#FF6300"/>
<path fill-rule="evenodd" clip-rule="evenodd" d="M159.442 180.068C158.514 179.525 158.509 178.654 159.43 178.122C160.351 177.59 161.85 177.599 162.777 178.142C163.705 178.685 163.71 179.556 162.789 180.088C161.868 180.62 160.369 180.611 159.442 180.068Z" stroke="white" stroke-width="0.758355"/>
<path fill-rule="evenodd" clip-rule="evenodd" d="M171.588 195.816C170.66 195.273 170.655 194.402 171.576 193.87C172.497 193.338 173.996 193.347 174.924 193.89C175.851 194.433 175.856 195.304 174.935 195.836C174.014 196.368 172.515 196.359 171.588 195.816Z" fill="#FF6300"/>
<path fill-rule="evenodd" clip-rule="evenodd" d="M171.588 195.816C170.66 195.273 170.655 194.402 171.576 193.87C172.497 193.338 173.996 193.347 174.924 193.89C175.851 194.433 175.856 195.304 174.935 195.836C174.014 196.368 172.515 196.359 171.588 195.816Z" stroke="white" stroke-width="0.758355"/>
<path fill-rule="evenodd" clip-rule="evenodd" d="M206.529 207.275C205.601 206.732 205.596 205.861 206.517 205.329C207.438 204.798 208.937 204.807 209.864 205.349C210.792 205.892 210.797 206.764 209.876 207.295C208.955 207.827 207.456 207.818 206.529 207.275Z" fill="#FF6300"/>
<path fill-rule="evenodd" clip-rule="evenodd" d="M206.529 207.275C205.601 206.732 205.596 205.861 206.517 205.329C207.438 204.798 208.937 204.807 209.864 205.349C210.792 205.892 210.797 206.764 209.876 207.295C208.955 207.827 207.456 207.818 206.529 207.275Z" stroke="white" stroke-width="0.758355"/>
<path fill-rule="evenodd" clip-rule="evenodd" d="M169.332 187.924C168.405 187.382 168.4 186.51 169.321 185.979C170.242 185.447 171.741 185.456 172.668 185.999C173.596 186.541 173.601 187.413 172.68 187.945C171.759 188.476 170.26 188.467 169.332 187.924Z" fill="#FF6300"/>
<path fill-rule="evenodd" clip-rule="evenodd" d="M169.332 187.924C168.405 187.382 168.4 186.51 169.321 185.979C170.242 185.447 171.741 185.456 172.668 185.999C173.596 186.541 173.601 187.413 172.68 187.945C171.759 188.476 170.26 188.467 169.332 187.924Z" stroke="white" stroke-width="0.758355"/>
<path fill-rule="evenodd" clip-rule="evenodd" d="M192.576 206.735C191.648 206.192 191.643 205.321 192.564 204.789C193.485 204.257 194.984 204.266 195.912 204.809C196.839 205.352 196.844 206.223 195.923 206.755C195.002 207.287 193.503 207.278 192.576 206.735Z" fill="#FF6300"/>
<path fill-rule="evenodd" clip-rule="evenodd" d="M192.576 206.735C191.648 206.192 191.643 205.321 192.564 204.789C193.485 204.257 194.984 204.266 195.912 204.809C196.839 205.352 196.844 206.223 195.923 206.755C195.002 207.287 193.503 207.278 192.576 206.735Z" stroke="white" stroke-width="0.758355"/>
<path fill-rule="evenodd" clip-rule="evenodd" d="M227.63 184.387C228.558 184.93 228.563 185.801 227.642 186.333C226.721 186.865 225.222 186.856 224.295 186.313C223.367 185.77 223.362 184.899 224.283 184.367C225.204 183.835 226.703 183.844 227.63 184.387Z" fill="#3693FF"/>
<path fill-rule="evenodd" clip-rule="evenodd" d="M227.63 184.387C228.558 184.93 228.563 185.801 227.642 186.333C226.721 186.865 225.222 186.856 224.295 186.313C223.367 185.77 223.362 184.899 224.283 184.367C225.204 183.835 226.703 183.844 227.63 184.387Z" stroke="white" stroke-width="0.758355"/>
<path fill-rule="evenodd" clip-rule="evenodd" d="M214.849 175.415C215.777 175.958 215.782 176.829 214.861 177.361C213.939 177.893 212.441 177.884 211.513 177.341C210.586 176.798 210.581 175.927 211.502 175.395C212.423 174.863 213.922 174.872 214.849 175.415Z" fill="#3693FF"/>
<path fill-rule="evenodd" clip-rule="evenodd" d="M214.849 175.415C215.777 175.958 215.782 176.829 214.861 177.361C213.939 177.893 212.441 177.884 211.513 177.341C210.586 176.798 210.581 175.927 211.502 175.395C212.423 174.863 213.922 174.872 214.849 175.415Z" stroke="white" stroke-width="0.758355"/>
<path fill-rule="evenodd" clip-rule="evenodd" d="M221.531 175.393C222.458 175.936 222.463 176.807 221.542 177.339C220.621 177.871 219.122 177.862 218.195 177.319C217.267 176.776 217.262 175.905 218.183 175.373C219.105 174.842 220.603 174.85 221.531 175.393Z" fill="#3693FF"/>
<path fill-rule="evenodd" clip-rule="evenodd" d="M221.531 175.393C222.458 175.936 222.463 176.807 221.542 177.339C220.621 177.871 219.122 177.862 218.195 177.319C217.267 176.776 217.262 175.905 218.183 175.373C219.105 174.842 220.603 174.85 221.531 175.393Z" stroke="white" stroke-width="0.758355"/>
<path fill-rule="evenodd" clip-rule="evenodd" d="M232.783 178.17C233.71 178.713 233.716 179.585 232.794 180.116C231.873 180.648 230.375 180.639 229.447 180.096C228.519 179.554 228.514 178.682 229.435 178.15C230.357 177.619 231.855 177.628 232.783 178.17Z" fill="#3693FF"/>
<path fill-rule="evenodd" clip-rule="evenodd" d="M232.783 178.17C233.71 178.713 233.716 179.585 232.794 180.116C231.873 180.648 230.375 180.639 229.447 180.096C228.519 179.554 228.514 178.682 229.435 178.15C230.357 177.619 231.855 177.628 232.783 178.17Z" stroke="white" stroke-width="0.758355"/>
<path fill-rule="evenodd" clip-rule="evenodd" d="M245.346 182.848C246.274 183.391 246.279 184.262 245.358 184.794C244.436 185.326 242.938 185.317 242.01 184.774C241.083 184.231 241.078 183.36 241.999 182.828C242.92 182.296 244.419 182.305 245.346 182.848Z" fill="#3693FF"/>
<path fill-rule="evenodd" clip-rule="evenodd" d="M245.346 182.848C246.274 183.391 246.279 184.262 245.358 184.794C244.436 185.326 242.938 185.317 242.01 184.774C241.083 184.231 241.078 183.36 241.999 182.828C242.92 182.296 244.419 182.305 245.346 182.848Z" stroke="white" stroke-width="0.758355"/>
<path fill-rule="evenodd" clip-rule="evenodd" d="M235.811 188.369C236.738 188.912 236.744 189.783 235.822 190.315C234.901 190.847 233.403 190.838 232.475 190.295C231.548 189.752 231.542 188.881 232.464 188.349C233.385 187.817 234.883 187.826 235.811 188.369Z" fill="#3693FF"/>
<path fill-rule="evenodd" clip-rule="evenodd" d="M235.811 188.369C236.738 188.912 236.744 189.783 235.822 190.315C234.901 190.847 233.403 190.838 232.475 190.295C231.548 189.752 231.542 188.881 232.464 188.349C233.385 187.817 234.883 187.826 235.811 188.369Z" stroke="white" stroke-width="0.758355"/>
<path fill-rule="evenodd" clip-rule="evenodd" d="M214.464 183.784C215.392 184.327 215.397 185.198 214.476 185.73C213.555 186.262 212.056 186.253 211.128 185.71C210.201 185.167 210.196 184.296 211.117 183.764C212.038 183.232 213.537 183.241 214.464 183.784Z" fill="#3693FF"/>
<path fill-rule="evenodd" clip-rule="evenodd" d="M214.464 183.784C215.392 184.327 215.397 185.198 214.476 185.73C213.555 186.262 212.056 186.253 211.128 185.71C210.201 185.167 210.196 184.296 211.117 183.764C212.038 183.232 213.537 183.241 214.464 183.784Z" stroke="white" stroke-width="0.758355"/>
<path d="M226.017 160.796V182.816" stroke="url(#paint5_linear_566_14639)" stroke-width="1.26393" stroke-linecap="round" stroke-linejoin="round" stroke-dasharray="3.79"/>
<path d="M192.197 169.501V191.521" stroke="#FF6300" stroke-width="1.26393" stroke-linecap="round" stroke-linejoin="round" stroke-dasharray="3.79"/>
<path d="M173.237 173.086V195.106" stroke="#FF6300" stroke-width="1.26393" stroke-linecap="round" stroke-linejoin="round" stroke-dasharray="3.79"/>
<path d="M243.952 148.506V170.525" stroke="url(#paint6_linear_566_14639)" stroke-width="1.26393" stroke-linecap="round" stroke-linejoin="round" stroke-dasharray="3.79"/>
<path d="M208.082 171.037V207.396" stroke="#FF6300" stroke-width="1.26393" stroke-linecap="round" stroke-linejoin="round" stroke-dasharray="3.79"/>
<path d="M257.779 86.0042V152.588L199.781 185.911L141.784 152.588V86.0042H257.779Z" fill="url(#paint7_linear_566_14639)" stroke="#3364ED" stroke-width="0.631963"/>
<mask id="mask1_566_14639" style="mask-type:luminance" maskUnits="userSpaceOnUse" x="141" y="85" width="118" height="102">
<path d="M257.779 86.0042V152.588L199.781 185.911L141.784 152.588V86.0042H257.779Z" fill="white" stroke="white" stroke-width="0.631963"/>
</mask>
<g mask="url(#mask1_566_14639)">
<path fill-rule="evenodd" clip-rule="evenodd" d="M209.529 113.773L209.249 113.774L209.216 124.901L199.597 130.492L199.736 130.735L209.215 125.225L209.184 136.047L199.652 141.587L199.791 141.831L209.183 136.372L209.152 147.031L199.848 152.439L199.988 152.682L209.151 147.356L209.118 158.503L199.622 164.023L199.761 164.266L209.118 158.827L209.086 169.812L199.536 175.362L199.676 175.605L209.084 170.137L209.052 181.402L199.693 186.842L199.832 187.085L209.051 181.727L209.019 192.711L199.607 198.181L199.747 198.424L209.018 193.036L208.987 203.759L209.267 203.758L209.299 192.873L218.655 187.434L218.623 198.259L218.904 198.258L218.936 187.271L228.151 181.915L228.119 193.004L228.399 193.002L228.432 181.751L238.069 176.15L238.038 187.016L238.318 187.015L238.35 175.987L247.847 170.467L247.815 181.272L248.096 181.271L248.128 170.304L257.867 164.642L257.835 175.668L258.115 175.667L258.148 164.479L267.645 158.96L267.613 169.924L267.893 169.923L267.926 158.797L277.545 153.205L277.406 152.962L267.926 158.471L267.958 147.487L277.631 141.865L277.491 141.622L267.959 147.163L267.992 135.897L277.474 130.386L277.334 130.143L267.993 135.573L268.025 124.588L277.56 119.046L277.42 118.803L268.026 124.263L268.058 113.117L277.786 107.463L277.646 107.219L268.059 112.792L268.09 102.132L277.59 96.6112L277.45 96.3679L268.091 101.808L268.123 90.9858L277.535 85.5156L277.395 85.2725L268.124 90.6612L268.155 79.9377L267.875 79.9386L267.843 90.8244L258.346 96.3442L258.377 85.6817L258.097 85.6826L258.066 96.5074L248.326 102.169L248.358 91.2857L248.077 91.2866L248.045 102.332L238.548 107.852L238.58 97.0297L238.3 97.0306L238.268 108.015L228.63 113.616L228.661 103.018L228.381 103.019L228.35 113.779L219.134 119.136L219.166 108.274L218.885 108.274L218.853 119.299L209.497 124.737L209.529 113.773ZM209.496 125.062L218.852 119.624L218.821 130.446L209.465 135.884L209.496 125.062ZM219.133 119.461L228.349 114.104L228.317 124.926L219.102 130.283L219.133 119.461ZM228.63 113.941L238.267 108.34L238.235 119.161L228.598 124.763L228.63 113.941ZM238.547 108.177L248.044 102.657L248.013 113.479L238.516 118.998L238.547 108.177ZM248.325 102.493L258.065 96.8323L258.033 107.654L248.293 113.315L248.325 102.493ZM258.345 96.669L267.842 91.1491L267.811 101.971L258.314 107.491L258.345 96.669ZM218.82 130.771L209.464 136.209L209.433 146.868L218.789 141.43L218.82 130.771ZM228.316 125.251L219.101 130.608L219.07 141.267L228.285 135.91L228.316 125.251ZM238.235 119.486L228.597 125.088L228.566 135.747L238.203 130.146L238.235 119.486ZM248.012 113.803L238.515 119.323L238.484 129.983L247.981 124.463L248.012 113.803ZM258.032 107.979L248.293 113.64L248.261 124.3L258.001 118.638L258.032 107.979ZM267.81 102.296L258.313 107.816L258.282 118.475L267.779 112.955L267.81 102.296ZM209.432 147.193L218.788 141.755L218.755 152.902L209.399 158.34L209.432 147.193ZM219.069 141.592L228.284 136.235L228.252 147.382L219.036 152.739L219.069 141.592ZM228.565 136.072L238.202 130.47L238.17 141.617L228.533 147.219L228.565 136.072ZM238.483 130.307L247.98 124.787L247.947 135.934L238.451 141.454L238.483 130.307ZM248.26 124.624L258 118.963L257.968 130.11L248.228 135.771L248.26 124.624ZM258.281 118.8L267.778 113.28L267.745 124.427L258.248 129.947L258.281 118.8ZM218.754 153.226L209.398 158.665L209.366 169.649L218.722 164.211L218.754 153.226ZM228.251 147.707L219.035 153.063L219.003 164.047L228.219 158.691L228.251 147.707ZM238.169 141.942L228.532 147.543L228.5 158.528L238.137 152.926L238.169 141.942ZM247.946 136.259L238.45 141.779L238.418 152.763L247.914 147.243L247.946 136.259ZM257.967 130.434L248.227 136.095L248.195 147.08L257.935 141.419L257.967 130.434ZM267.744 124.751L258.247 130.271L258.216 141.256L267.712 135.736L267.744 124.751ZM209.365 169.973L218.721 164.536L218.689 175.801L209.332 181.239L209.365 169.973ZM219.002 164.372L228.218 159.016L228.185 170.281L218.969 175.638L219.002 164.372ZM228.499 158.853L238.136 153.251L238.103 164.516L228.466 170.118L228.499 158.853ZM238.417 153.088L247.913 147.568L247.881 158.833L238.384 164.353L238.417 153.088ZM248.194 147.405L257.934 141.743L257.901 153.009L248.162 158.67L248.194 147.405ZM258.215 141.58L267.711 136.061L267.679 147.326L258.182 152.846L258.215 141.58ZM218.688 176.126L209.331 181.564L209.3 192.548L218.656 187.11L218.688 176.126ZM228.184 170.606L218.969 175.962L218.936 186.947L228.152 181.59L228.184 170.606ZM238.102 164.841L228.465 170.443L228.433 181.427L238.07 175.826L238.102 164.841ZM247.88 159.158L238.383 164.678L238.351 175.662L247.848 170.142L247.88 159.158ZM257.9 153.334L248.161 158.995L248.129 169.979L257.868 164.318L257.9 153.334ZM267.678 147.65L258.181 153.171L258.149 164.155L267.645 158.635L267.678 147.65Z" fill="#3364ED"/>
</g>
<mask id="path-45-inside-1_566_14639" fill="white">
<path d="M200.036 186.129L199.781 186.277L141.467 152.772V85.6877H200.036V186.129Z"/>
</mask>
<path d="M200.036 186.129L199.781 186.277L141.467 152.772V85.6877H200.036V186.129Z" fill="url(#paint8_linear_566_14639)"/>
<path d="M200.036 186.129L200.352 186.677L200.668 186.494V186.129H200.036ZM199.781 186.277L199.466 186.825L199.781 187.006L200.096 186.824L199.781 186.277ZM141.467 152.772H140.835V153.137L141.152 153.32L141.467 152.772ZM141.467 85.6877V85.0558H140.835V85.6877H141.467ZM200.036 85.6877H200.668V85.0558H200.036V85.6877ZM200.036 186.129L199.721 185.582L199.465 185.729L199.781 186.277L200.096 186.824L200.352 186.677L200.036 186.129ZM199.781 186.277L200.095 185.729L141.782 152.224L141.467 152.772L141.152 153.32L199.466 186.825L199.781 186.277ZM141.467 152.772H142.099V85.6877H141.467H140.835V152.772H141.467ZM141.467 85.6877V86.3197H200.036V85.6877V85.0558H141.467V85.6877ZM200.036 85.6877H199.405V186.129H200.036H200.668V85.6877H200.036Z" fill="#3364ED" mask="url(#path-45-inside-1_566_14639)"/>
<mask id="mask2_566_14639" style="mask-type:luminance" maskUnits="userSpaceOnUse" x="141" y="85" width="60" height="102">
<mask id="path-47-inside-2_566_14639" fill="white">
<path d="M200.036 186.129L199.781 186.277L141.467 152.772V85.6877H200.036V186.129Z"/>
</mask>
<path d="M200.036 186.129L199.781 186.277L141.467 152.772V85.6877H200.036V186.129Z" fill="white"/>
<path d="M200.036 186.129L200.352 186.677L200.668 186.494V186.129H200.036ZM199.781 186.277L199.466 186.825L199.781 187.006L200.096 186.824L199.781 186.277ZM141.467 152.772H140.835V153.137L141.152 153.32L141.467 152.772ZM141.467 85.6877V85.0558H140.835V85.6877H141.467ZM200.036 85.6877H200.668V85.0558H200.036V85.6877ZM200.036 186.129L199.721 185.582L199.465 185.729L199.781 186.277L200.096 186.824L200.352 186.677L200.036 186.129ZM199.781 186.277L200.095 185.729L141.782 152.224L141.467 152.772L141.152 153.32L199.466 186.825L199.781 186.277ZM141.467 152.772H142.099V85.6877H141.467H140.835V152.772H141.467ZM141.467 85.6877V86.3197H200.036V85.6877V85.0558H141.467V85.6877ZM200.036 85.6877H199.405V186.129H200.036H200.668V85.6877H200.036Z" fill="white" mask="url(#path-47-inside-2_566_14639)"/>
</mask>
<g mask="url(#mask2_566_14639)">
<path fill-rule="evenodd" clip-rule="evenodd" d="M189.725 113.525L190.005 113.526L190.038 124.652L199.657 130.243L199.518 130.486L190.038 124.977L190.07 135.799L199.602 141.339L199.462 141.582L190.071 136.123L190.102 146.783L199.405 152.19L199.266 152.434L190.103 147.108L190.135 158.254L199.632 163.774L199.493 164.017L190.136 158.579L190.168 169.563L199.718 175.114L199.578 175.357L190.169 169.888L190.202 181.154L199.561 186.593L199.421 186.836L190.203 181.478L190.235 192.462L199.646 197.933L199.507 198.176L190.236 192.787L190.267 203.511L189.987 203.51L189.955 192.624L180.599 187.186L180.63 198.011L180.35 198.01L180.318 187.023L171.102 181.666L171.135 192.755L170.854 192.754L170.822 181.503L161.184 175.902L161.216 186.767L160.936 186.766L160.904 175.738L151.407 170.219L151.438 181.023L151.158 181.022L151.126 170.055L141.387 164.394L141.418 175.419L141.138 175.418L141.106 164.231L131.609 158.711L131.641 169.675L131.361 169.674L131.328 158.548L121.709 152.957L121.848 152.713L131.327 158.223L131.295 147.239L121.623 141.617L121.762 141.374L131.294 146.914L131.262 135.649L121.78 130.138L121.919 129.894L131.261 135.324L131.229 124.34L121.694 118.798L121.834 118.555L131.228 124.015L131.195 112.868L121.468 107.214L121.607 106.971L131.194 112.543L131.163 101.884L121.664 96.3626L121.803 96.1194L131.162 101.559L131.131 90.7373L121.719 85.2671L121.859 85.0239L131.13 90.4126L131.099 79.6892L131.379 79.6901L131.411 90.5759L140.907 96.0956L140.876 85.4332L141.157 85.4341L141.188 96.2589L150.928 101.92L150.896 91.0372L151.176 91.0381L151.209 102.083L160.705 107.603L160.674 96.7811L160.954 96.782L160.986 107.766L170.623 113.368L170.592 102.769L170.873 102.77L170.904 113.531L180.12 118.887L180.088 108.025L180.368 108.026L180.401 119.051L189.757 124.489L189.725 113.525ZM189.758 124.814L180.401 119.376L180.433 130.197L189.789 135.635L189.758 124.814ZM180.121 119.213L170.905 113.856L170.937 124.678L180.152 130.034L180.121 119.213ZM170.624 113.693L160.987 108.091L161.019 118.913L170.656 124.515L170.624 113.693ZM160.706 107.928L151.21 102.408L151.241 113.23L160.738 118.75L160.706 107.928ZM150.929 102.245L141.189 96.5837L141.221 107.406L150.96 113.067L150.929 102.245ZM140.908 96.4205L131.412 90.9006L131.443 101.722L140.94 107.242L140.908 96.4205ZM180.434 130.522L189.79 135.96L189.821 146.62L180.465 141.181L180.434 130.522ZM170.937 125.002L180.153 130.359L180.184 141.018L170.969 135.662L170.937 125.002ZM161.019 119.237L170.657 124.839L170.688 135.498L161.05 129.897L161.019 119.237ZM151.242 113.555L160.739 119.074L160.77 129.734L151.273 124.214L151.242 113.555ZM141.222 107.73L150.961 113.391L150.992 124.051L141.253 118.39L141.222 107.73ZM131.444 102.047L140.941 107.567L140.972 118.227L131.475 112.707L131.444 102.047ZM189.822 146.944L180.466 141.506L180.499 152.653L189.855 158.091L189.822 146.944ZM180.185 141.343L170.969 135.986L171.002 147.133L180.218 152.49L180.185 141.343ZM170.689 135.823L161.052 130.222L161.084 141.369L170.721 146.97L170.689 135.823ZM160.771 130.059L151.274 124.539L151.306 135.685L160.803 141.205L160.771 130.059ZM150.993 124.376L141.254 118.715L141.286 129.861L151.026 135.522L150.993 124.376ZM140.973 118.551L131.476 113.031L131.509 124.178L141.005 129.698L140.973 118.551ZM180.499 152.978L189.856 158.416L189.888 169.4L180.531 163.962L180.499 152.978ZM171.003 147.458L180.219 152.815L180.251 163.799L171.035 158.442L171.003 147.458ZM161.085 141.693L170.722 147.295L170.754 158.279L161.117 152.678L161.085 141.693ZM151.308 136.011L160.804 141.53L160.836 152.515L151.34 146.995L151.308 136.011ZM141.287 130.186L151.027 135.847L151.059 146.831L141.319 141.17L141.287 130.186ZM131.509 124.503L141.006 130.023L141.038 141.007L131.541 135.487L131.509 124.503ZM189.889 169.725L180.532 164.287L180.565 175.552L189.921 180.991L189.889 169.725ZM180.251 164.123L171.036 158.767L171.068 170.032L180.284 175.389L180.251 164.123ZM170.755 158.604L161.118 153.002L161.151 164.268L170.788 169.869L170.755 158.604ZM160.837 152.839L151.341 147.319L151.373 158.585L160.87 164.104L160.837 152.839ZM151.06 147.156L141.32 141.495L141.353 152.761L151.092 158.422L151.06 147.156ZM141.039 141.332L131.542 135.812L131.575 147.077L141.072 152.597L141.039 141.332ZM180.566 175.877L189.923 181.315L189.954 192.3L180.598 186.861L180.566 175.877ZM171.069 170.357L180.285 175.714L180.317 186.698L171.102 181.342L171.069 170.357ZM161.152 164.593L170.789 170.194L170.821 181.178L161.183 175.577L161.152 164.593ZM151.374 158.91L160.871 164.429L160.903 175.414L151.406 169.894L151.374 158.91ZM141.354 153.085L151.093 158.746L151.125 169.73L141.386 164.069L141.354 153.085ZM131.576 147.402L141.073 152.922L141.105 163.906L131.608 158.386L131.576 147.402Z" fill="#3364ED"/>
</g>
<path d="M141.774 85.6856L199.778 52.3452L257.782 85.6856L199.778 119.026L141.774 85.6856Z" fill="url(#paint9_linear_566_14639)" stroke="#3364ED" stroke-width="0.631963" stroke-linecap="round"/>
<mask id="mask3_566_14639" style="mask-type:luminance" maskUnits="userSpaceOnUse" x="141" y="51" width="118" height="69">
<path d="M141.774 85.6856L199.778 52.3452L257.782 85.6856L199.778 119.026L141.774 85.6856Z" fill="white" stroke="white" stroke-width="0.631963" stroke-linecap="round"/>
</mask>
<g mask="url(#mask3_566_14639)">
<path fill-rule="evenodd" clip-rule="evenodd" d="M189.834 113.174L189.975 113.416L199.627 107.881L209.279 113.416L209.42 113.174L199.909 107.72L209.297 102.336L218.86 107.821L219.001 107.578L209.578 102.174L218.825 96.8716L228.16 102.225L228.301 101.983L219.107 96.7101L228.776 91.1648L238.305 96.6292L238.446 96.3869L229.058 91.0033L238.587 85.5388L248.168 91.0335L248.309 90.7913L238.869 85.3773L248.641 79.7729L258.031 85.158L258.172 84.9158L248.923 79.6114L258.451 74.147L267.895 79.5624L268.035 79.3201L258.733 73.9854L268.035 68.6506L267.895 68.4083L258.451 73.8239L249.064 68.4403L258.454 63.0551L258.313 62.8128L248.782 68.2788L239.535 62.9759L249.155 57.4595L249.013 57.2172L239.253 62.8144L229.584 57.2689L239.009 51.8635L238.869 51.6213L229.302 57.1074L219.774 51.643L229.146 46.268L229.005 46.0257L219.492 51.4815L209.719 45.8773L219.283 40.3924L219.142 40.1502L209.437 45.7158L199.909 40.251L209.42 34.7969L209.279 34.5546L199.627 40.0895L189.975 34.5546L189.834 34.7969L199.345 40.2514L189.817 45.7158L180.112 40.1502L179.971 40.3924L189.535 45.8773L179.763 51.4815L170.249 46.0257L170.108 46.268L179.481 51.643L169.952 57.1074L160.386 51.6213L160.245 51.8635L169.67 57.2689L160.001 62.8144L150.241 57.2172L150.1 57.4595L159.719 62.9759L150.472 68.2788L140.941 62.8128L140.8 63.0551L150.19 68.4403L140.803 73.8239L131.36 68.4083L131.219 68.6506L140.521 73.9854L131.219 79.3201L131.36 79.5624L140.803 74.147L150.331 79.6114L141.082 84.9158L141.223 85.158L150.613 79.773L160.386 85.3773L150.945 90.7913L151.086 91.0335L160.667 85.5389L170.196 91.0033L160.808 96.3869L160.949 96.6292L170.478 91.1648L180.148 96.7101L170.953 101.983L171.094 102.225L180.429 96.8716L189.676 102.174L180.253 107.578L180.394 107.821L189.958 102.336L199.345 107.72L189.834 113.174ZM199.627 107.558L190.239 102.175L199.627 96.7909L209.015 102.175L199.627 107.558ZM189.958 102.013L180.711 96.7101L190.099 91.3264L199.345 96.6293L189.958 102.013ZM180.429 96.5486L170.759 91.0033L180.147 85.6197L189.817 91.1649L180.429 96.5486ZM170.478 90.8419L160.949 85.3775L170.337 79.9938L179.866 85.4583L170.478 90.8419ZM160.667 85.2159L150.895 79.6116L160.283 74.228L170.055 79.8323L160.667 85.2159ZM150.613 79.4499L141.084 73.9855L150.472 68.6019L160.001 74.0663L150.613 79.4499ZM199.909 96.6293L209.297 102.013L218.543 96.7101L209.155 91.3264L199.909 96.6293ZM190.38 91.1651L199.627 96.4679L208.874 91.165L199.627 85.8622L190.38 91.1651ZM180.429 85.458L190.099 91.0033L199.345 85.7005L189.676 80.1552L180.429 85.458ZM170.619 79.8322L180.147 85.2966L189.394 79.9938L179.866 74.5293L170.619 79.8322ZM160.564 74.0663L170.337 79.6707L179.584 74.3678L169.811 68.7635L160.564 74.0663ZM150.754 68.4405L160.283 73.9049L169.529 68.602L160.001 63.1376L150.754 68.4405ZM218.825 96.5486L209.437 91.1649L219.107 85.6197L228.495 91.0033L218.825 96.5486ZM209.155 91.0033L199.909 85.7005L209.578 80.1552L218.825 85.458L209.155 91.0033ZM199.627 85.5392L189.957 79.9939L199.627 74.4486L209.297 79.9939L199.627 85.5392ZM189.676 79.8323L180.147 74.3678L189.817 68.8225L199.345 74.287L189.676 79.8323ZM179.866 74.2061L170.093 68.6018L179.763 63.0566L189.535 68.6608L179.866 74.2061ZM169.811 68.4405L160.282 62.9762L169.952 57.431L179.481 62.8954L169.811 68.4405ZM219.388 85.4582L228.776 90.8419L238.305 85.3775L228.917 79.9938L219.388 85.4582ZM209.86 79.9938L219.107 85.2966L228.636 79.8321L219.389 74.5293L209.86 79.9938ZM199.909 74.287L209.578 79.8323L219.107 74.3678L209.437 68.8225L199.909 74.287ZM190.099 68.6609L199.627 74.1254L209.156 68.6609L199.627 63.1965L190.099 68.6609ZM180.044 62.8952L189.817 68.4994L199.345 63.035L189.573 57.4309L180.044 62.8952ZM170.234 57.2691L179.763 62.7338L189.291 57.2691L179.763 51.8047L170.234 57.2691ZM238.586 85.2159L229.199 79.8323L238.972 74.228L248.359 79.6116L238.586 85.2159ZM228.917 79.6707L219.671 74.3679L229.443 68.7635L238.69 74.0663L228.917 79.6707ZM219.389 74.2063L209.719 68.661L219.492 63.0568L229.161 68.6019L219.389 74.2063ZM209.437 68.4994L199.909 63.035L209.681 57.4305L219.21 62.8952L209.437 68.4994ZM199.627 62.8734L189.854 57.2689L199.627 51.6647L209.4 57.2689L199.627 62.8734ZM189.573 57.1074L180.044 51.6431L189.817 46.0389L199.345 51.5033L189.573 57.1074ZM239.253 74.0663L248.641 79.4499L258.17 73.9854L248.782 68.6019L239.253 74.0663ZM229.725 68.6018L238.972 73.9047L248.5 68.4403L239.254 63.1374L229.725 68.6018ZM219.774 62.8954L229.443 68.4405L238.972 62.9762L229.302 57.4306L219.774 62.8954ZM209.963 57.2691L219.492 62.7338L229.021 57.2691L219.492 51.8047L209.963 57.2691ZM199.909 51.5033L209.681 57.1074L219.21 51.6431L209.437 46.0389L199.909 51.5033ZM190.098 45.8773L199.627 51.3416L209.156 45.8773L199.627 40.4129L190.098 45.8773Z" fill="#3364ED"/>
</g>
<path d="M199.936 68.6365L229.119 85.4119L229.596 85.6853L229.119 85.9597L199.936 102.734L199.777 102.825L199.62 102.734L170.437 85.9597L169.96 85.6853L170.437 85.4119L199.62 68.6365L199.777 68.5466L199.936 68.6365Z" fill="#062782" stroke="#3364ED" stroke-width="0.631963" stroke-linecap="round"/>
<mask id="mask4_566_14639" style="mask-type:luminance" maskUnits="userSpaceOnUse" x="169" y="68" width="62" height="36">
<path d="M199.936 68.6365L229.119 85.4119L229.596 85.6853L229.119 85.9597L199.936 102.734L199.777 102.825L199.62 102.734L170.437 85.9597L169.96 85.6853L170.437 85.4119L199.62 68.6365L199.777 68.5466L199.936 68.6365Z" fill="white" stroke="white" stroke-width="0.631963" stroke-linecap="round"/>
</mask>
<g mask="url(#mask4_566_14639)">
<rect x="199.781" y="63.499" width="32.2826" height="41.4792" fill="#3465ED"/>
</g>
<path fill-rule="evenodd" clip-rule="evenodd" d="M170.729 63.5488L228.938 63.499V85.5863L199.772 102.46L170.729 85.7541V63.5488Z" fill="url(#paint10_linear_566_14639)"/>
<path d="M185.525 161.058L185.461 127.397L156.341 110.51L156.406 144.172L185.525 161.058Z" fill="#062782" stroke="#3364ED" stroke-width="0.631963" stroke-linecap="round"/>
<path fill-rule="evenodd" clip-rule="evenodd" d="M176.178 37.5376L199.883 51.319V79.2263L176.178 65.4449V37.5376Z" fill="url(#paint11_linear_566_14639)"/>
<path fill-rule="evenodd" clip-rule="evenodd" d="M199.883 23.7563L223.588 37.5377L199.883 51.3191L176.178 37.5377L199.883 23.7563Z" fill="url(#paint12_linear_566_14639)"/>
<path fill-rule="evenodd" clip-rule="evenodd" d="M223.589 37.5376L199.883 51.319V79.2263L223.589 65.4449V37.5376Z" fill="url(#paint13_linear_566_14639)"/>
<path fill-rule="evenodd" clip-rule="evenodd" d="M171.188 34.5898L199.883 51.2566V85.0067L171.188 68.34V34.5898Z" stroke="url(#paint14_linear_566_14639)" stroke-width="0.947944" stroke-linejoin="round"/>
<path fill-rule="evenodd" clip-rule="evenodd" d="M228.579 34.5898L199.883 51.2566V85.0067L228.579 68.34V34.5898Z" stroke="url(#paint15_linear_566_14639)" stroke-width="0.947944" stroke-linejoin="round"/>
<path fill-rule="evenodd" clip-rule="evenodd" d="M199.883 17.9231L228.579 34.5898L199.883 51.2566L171.188 34.5898L199.883 17.9231Z" stroke="url(#paint16_linear_566_14639)" stroke-width="0.947944" stroke-linejoin="round"/>
<path d="M185.114 127.39L185.169 160.45L156.545 143.873L156.491 110.812L185.114 127.39Z" fill="#062782" stroke="#3364ED" stroke-width="0.50557"/>
<mask id="mask5_566_14639" style="mask-type:luminance" maskUnits="userSpaceOnUse" x="156" y="110" width="30" height="51">
<path d="M185.114 127.39L185.169 160.45L156.545 143.873L156.491 110.812L185.114 127.39Z" fill="white" stroke="white" stroke-width="0.50557"/>
</mask>
<g mask="url(#mask5_566_14639)">
<path fill-rule="evenodd" clip-rule="evenodd" d="M49.5573 105.722L21.0481 122.109L125.977 182.421C135.727 188.025 147.72 188.025 157.47 182.421L262.399 122.109L233.89 105.722L141.723 158.698L49.5573 105.722Z" fill="url(#paint17_linear_566_14639)"/>
<path d="M21.0481 122.109L20.8906 121.835C20.7926 121.891 20.7321 121.996 20.7321 122.109C20.7321 122.222 20.7926 122.326 20.8906 122.383L21.0481 122.109ZM49.5573 105.722L49.7148 105.448C49.6173 105.392 49.4973 105.392 49.3998 105.448L49.5573 105.722ZM125.977 182.421L126.134 182.147L126.134 182.147L125.977 182.421ZM157.47 182.421L157.312 182.147L157.312 182.147L157.47 182.421ZM262.399 122.109L262.556 122.383C262.654 122.326 262.715 122.222 262.715 122.109C262.715 121.996 262.654 121.891 262.556 121.835L262.399 122.109ZM233.89 105.722L234.047 105.448C233.95 105.392 233.83 105.392 233.732 105.448L233.89 105.722ZM141.723 158.698L141.566 158.972C141.663 159.028 141.783 159.028 141.881 158.972L141.723 158.698ZM21.0481 122.109L21.2056 122.383L49.7148 105.996L49.5573 105.722L49.3998 105.448L20.8906 121.835L21.0481 122.109ZM125.977 182.421L126.134 182.147L21.2056 121.835L21.0481 122.109L20.8906 122.383L125.819 182.695L125.977 182.421ZM157.47 182.421L157.312 182.147C147.66 187.695 135.787 187.695 126.134 182.147L125.977 182.421L125.819 182.695C135.667 188.355 147.78 188.355 157.627 182.695L157.47 182.421ZM262.399 122.109L262.241 121.835L157.312 182.147L157.47 182.421L157.627 182.695L262.556 122.383L262.399 122.109ZM233.89 105.722L233.732 105.996L262.241 122.383L262.399 122.109L262.556 121.835L234.047 105.448L233.89 105.722ZM233.89 105.722L233.732 105.448L141.566 158.424L141.723 158.698L141.881 158.972L234.047 105.996L233.89 105.722ZM141.723 158.698L141.881 158.424L49.7148 105.448L49.5573 105.722L49.3998 105.996L141.566 158.972L141.723 158.698Z" fill="#3364ED"/>
<path d="M49.5569 100.601L141.723 153.578L199.429 120.409L233.89 100.601L262.399 116.988C262.399 116.988 220.461 141.093 199.492 153.146C184.494 161.767 154.497 179.009 154.497 179.009C146.589 183.555 136.858 183.555 128.949 179.009L21.0479 116.988L49.5569 100.601Z" fill="white" stroke="#3364ED" stroke-width="0.631963" stroke-linecap="round" stroke-linejoin="round"/>
</g>
<path fill-rule="evenodd" clip-rule="evenodd" d="M141.723 153.065L185.433 127.941V160.715L157.47 176.788C147.72 182.392 135.726 182.392 125.977 176.788L21.0908 116.5H21.048V116.476L21.048 116.476L21.048 116.476V111.123H26.1722V113.53L49.5572 100.089L141.723 153.065Z" fill="url(#paint18_linear_566_14639)"/>
<path d="M185.433 127.941H185.749L185.275 127.667L185.433 127.941ZM141.723 153.065L141.566 153.339L141.881 153.339L141.723 153.065ZM185.433 160.715L185.59 160.989L185.749 160.715H185.433ZM157.47 176.788L157.627 177.062L157.627 177.062L157.47 176.788ZM125.977 176.788L126.134 176.514L125.977 176.788ZM21.0908 116.5L21.2483 116.226L21.0908 116.184V116.5ZM21.048 116.5H20.732L21.048 116.816V116.5ZM21.048 116.476H21.364L21.2121 116.206L21.048 116.476ZM21.048 116.476L20.8839 116.206V116.746L21.048 116.476ZM21.048 116.476L21.2121 116.746L21.364 116.476H21.048ZM21.048 111.123V110.807L20.732 111.123H21.048ZM26.1722 111.123H26.4882L26.1722 110.807V111.123ZM26.1722 113.53H25.8562L26.3297 113.804L26.1722 113.53ZM49.5572 100.089L49.7147 99.8147L49.3997 99.8147L49.5572 100.089ZM185.433 127.941L185.275 127.667L141.566 152.791L141.723 153.065L141.881 153.339L185.59 128.215L185.433 127.941ZM185.433 160.715H185.749V127.941H185.433H185.117V160.715H185.433ZM157.47 176.788L157.627 177.062L185.59 160.989L185.433 160.715L185.275 160.441L157.312 176.514L157.47 176.788ZM125.977 176.788L125.819 177.062C135.666 182.722 147.78 182.722 157.627 177.062L157.47 176.788L157.312 176.514C147.66 182.062 135.786 182.062 126.134 176.514L125.977 176.788ZM21.0908 116.5L20.9333 116.774L125.819 177.062L125.977 176.788L126.134 176.514L21.2483 116.226L21.0908 116.5ZM21.0908 116.5V116.184H21.048V116.5V116.816H21.0908V116.5ZM21.048 116.5H21.364V116.476H21.048H20.732V116.5H21.048ZM21.048 116.476L20.8839 116.746L20.8839 116.746L21.048 116.476L21.2121 116.206L21.212 116.206L21.048 116.476ZM21.048 116.476L20.8839 116.206L20.8839 116.206L21.048 116.476L21.212 116.746L21.2121 116.746L21.048 116.476ZM21.048 116.476H21.364V111.123H21.048H20.732V116.476H21.048ZM21.048 111.123V111.439H26.1722V111.123V110.807H21.048V111.123ZM26.1722 111.123H25.8562V113.53H26.1722H26.4882V111.123H26.1722ZM49.5572 100.089L49.3997 99.8147L26.0147 113.256L26.1722 113.53L26.3297 113.804L49.7147 100.363L49.5572 100.089ZM141.723 153.065L141.881 152.791L49.7147 99.8147L49.5572 100.089L49.3997 100.363L141.566 153.339L141.723 153.065Z" fill="#3364ED"/>
<path fill-rule="evenodd" clip-rule="evenodd" d="M181.233 125.046L141.723 147.789L49.557 94.7363L21.0479 111.147L125.96 171.536C135.718 177.153 147.728 177.153 157.486 171.536L185.433 155.449V127.471L181.233 125.046Z" fill="white"/>
<path d="M181.233 125.046L181.391 124.772C181.294 124.716 181.173 124.716 181.076 124.772L181.233 125.046ZM141.723 147.789L141.565 148.063C141.663 148.119 141.783 148.119 141.881 148.063L141.723 147.789ZM49.557 94.7363L49.7146 94.4625C49.6171 94.4063 49.497 94.4063 49.3994 94.4625L49.557 94.7363ZM21.0479 111.147L20.8902 110.873C20.7923 110.929 20.7319 111.034 20.7319 111.147C20.7319 111.26 20.7923 111.364 20.8902 111.42L21.0479 111.147ZM125.96 171.536L126.117 171.262L126.117 171.262L125.96 171.536ZM157.486 171.536L157.644 171.81L157.644 171.81L157.486 171.536ZM185.433 155.449L185.59 155.723C185.688 155.667 185.749 155.562 185.749 155.449H185.433ZM185.433 127.471H185.749C185.749 127.358 185.689 127.254 185.591 127.197L185.433 127.471ZM181.233 125.046L181.076 124.772L141.565 147.515L141.723 147.789L141.881 148.063L181.391 125.32L181.233 125.046ZM141.723 147.789L141.881 147.515L49.7146 94.4625L49.557 94.7363L49.3994 95.0102L141.565 148.063L141.723 147.789ZM49.557 94.7363L49.3994 94.4625L20.8902 110.873L21.0479 111.147L21.2055 111.42L49.7146 95.0102L49.557 94.7363ZM21.0479 111.147L20.8902 111.42L125.802 171.809L125.96 171.536L126.117 171.262L21.2055 110.873L21.0479 111.147ZM125.96 171.536L125.802 171.809C135.658 177.483 147.788 177.483 157.644 171.81L157.486 171.536L157.329 171.262C147.668 176.823 135.778 176.823 126.117 171.262L125.96 171.536ZM157.486 171.536L157.644 171.81L185.59 155.723L185.433 155.449L185.275 155.175L157.329 171.262L157.486 171.536ZM185.433 155.449H185.749V127.471H185.433H185.117V155.449H185.433ZM185.433 127.471L185.591 127.197L181.391 124.772L181.233 125.046L181.075 125.32L185.275 127.744L185.433 127.471Z" fill="#3364ED"/>
<path fill-rule="evenodd" clip-rule="evenodd" d="M166.3 172.182L137.153 121.796L156.281 110.753L185.478 127.574L185.531 161.079L166.3 172.182Z" fill="url(#paint19_linear_566_14639)"/>
<path opacity="0.3" d="M119.389 138.93L100.985 150.042L82.5809 138.93L100.985 127.817L119.389 138.93Z" fill="url(#paint20_linear_566_14639)"/>
<path fill-rule="evenodd" clip-rule="evenodd" d="M100.986 114.708L119.433 138.904L100.986 150.042L82.5384 138.904L100.986 114.708Z" stroke="url(#paint21_linear_566_14639)" stroke-width="0.947944" stroke-linejoin="round"/>
<path d="M115.333 138.136L100.986 146.457V119.317L115.333 138.136Z" fill="url(#paint22_linear_566_14639)"/>
<path d="M100.985 146.457L86.6378 138.136L100.985 119.317V146.457Z" fill="url(#paint23_linear_566_14639)"/>
<path d="M100.993 114.671V149.918" stroke="url(#paint24_linear_566_14639)" stroke-width="0.947944" stroke-linejoin="round"/>
<path fill-rule="evenodd" clip-rule="evenodd" d="M53.353 104.918L65.6288 112.072V126.558L53.353 119.404V104.918Z" fill="url(#paint25_linear_566_14639)"/>
<path fill-rule="evenodd" clip-rule="evenodd" d="M65.6287 97.7644L77.9045 104.918L65.6287 112.072L53.3528 104.918L65.6287 97.7644Z" fill="url(#paint26_linear_566_14639)"/>
<path fill-rule="evenodd" clip-rule="evenodd" d="M77.9047 104.918L65.6288 112.072V126.558L77.9047 119.404V104.918Z" fill="url(#paint27_linear_566_14639)"/>
<path fill-rule="evenodd" clip-rule="evenodd" d="M50.7684 103.388L65.6286 112.039V129.559L50.7684 120.907V103.388Z" stroke="url(#paint28_linear_566_14639)" stroke-width="0.947944" stroke-linejoin="round"/>
<path fill-rule="evenodd" clip-rule="evenodd" d="M80.4889 103.388L65.6286 112.039V129.559L80.4889 120.907V103.388Z" stroke="url(#paint29_linear_566_14639)" stroke-width="0.947944" stroke-linejoin="round"/>
<path fill-rule="evenodd" clip-rule="evenodd" d="M65.6285 94.7363L80.4887 103.388L65.6285 112.039L50.7682 103.388L65.6285 94.7363Z" stroke="url(#paint30_linear_566_14639)" stroke-width="0.947944" stroke-linejoin="round"/>
<path opacity="0.3" fill-rule="evenodd" clip-rule="evenodd" d="M141.467 170.013C149.674 170.013 156.327 166.46 156.327 162.076C156.327 157.692 149.674 154.138 141.467 154.138C133.26 154.138 126.607 157.692 126.607 162.076C126.607 166.46 133.26 170.013 141.467 170.013Z" fill="url(#paint31_linear_566_14639)"/>
<path d="M153.766 160.795H153.723C153.202 164.192 147.914 166.862 141.467 166.862C135.02 166.862 129.733 164.192 129.212 160.795H129.169V145.433H153.766V160.795Z" fill="url(#paint32_linear_566_14639)"/>
<path fill-rule="evenodd" clip-rule="evenodd" d="M141.467 152.011C148.259 152.011 153.765 149.049 153.765 145.394C153.765 141.739 148.259 138.776 141.467 138.776C134.675 138.776 129.169 141.739 129.169 145.394C129.169 149.049 134.675 152.011 141.467 152.011Z" fill="url(#paint33_linear_566_14639)"/>
<path d="M155.831 159.227C156.396 160.098 156.711 161.047 156.711 162.05C156.711 164.459 154.895 166.552 152.156 168.02C149.401 169.496 145.621 170.398 141.467 170.398C137.313 170.398 133.533 169.496 130.778 168.02C128.039 166.552 126.223 164.459 126.223 162.05C126.223 161.047 126.538 160.098 127.103 159.227L126.439 160.848V145.603C126.297 145.143 126.223 144.668 126.223 144.179C126.223 141.77 128.039 139.677 130.778 138.21C133.533 136.733 137.313 135.832 141.467 135.832C145.621 135.832 149.401 136.733 152.156 138.21C154.895 139.677 156.711 141.77 156.711 144.179C156.711 144.787 156.596 145.375 156.379 145.937V161.658L155.831 159.227ZM155.831 159.227V146.262C155.184 147.883 153.614 149.368 152.156 150.149C149.401 151.625 145.621 152.527 141.467 152.527C137.313 152.527 133.533 151.625 130.778 150.149C129.248 149.329 128.006 147.823 127.207 146.667V159.071C128.006 157.915 129.248 156.9 130.778 156.08C133.533 154.604 137.313 153.702 141.467 153.702C145.621 153.702 149.401 154.604 152.156 156.08C153.614 156.862 155.031 158.138 155.831 159.227ZM155.928 143.831C155.762 141.97 154.278 140.218 151.793 138.887C149.17 137.481 145.52 136.6 141.467 136.6C137.414 136.6 133.764 137.481 131.141 138.887C128.656 140.218 127.172 141.97 127.006 143.831V144.464L127.207 145.478C127.713 146.979 129.084 148.37 131.141 149.472C133.764 150.878 137.414 151.759 141.467 151.759C145.52 151.759 149.17 150.878 151.793 149.472C153.709 148.445 155.03 147.168 155.611 145.784L155.928 143.831ZM126.991 162.05C126.991 160.061 128.501 158.172 131.141 156.757C133.764 155.352 137.414 154.47 141.467 154.47C145.52 154.47 149.17 155.352 151.793 156.757C154.433 158.172 155.943 160.061 155.943 162.05C155.943 164.039 154.433 165.928 151.793 167.342C149.17 168.748 145.52 169.629 141.467 169.629C137.414 169.629 133.764 168.748 131.141 167.342C128.501 165.928 126.991 164.039 126.991 162.05Z" stroke="url(#paint34_linear_566_14639)" stroke-width="0.947944" stroke-linejoin="round"/>
<path fill-rule="evenodd" clip-rule="evenodd" d="M141.467 152.09C149.674 152.09 156.327 148.537 156.327 144.153C156.327 139.769 149.674 136.216 141.467 136.216C133.26 136.216 126.607 139.769 126.607 144.153C126.607 148.537 133.26 152.09 141.467 152.09Z" stroke="url(#paint35_linear_566_14639)" stroke-linejoin="round"/>
<mask id="path-90-inside-3_566_14639" fill="white">
<path d="M116.871 165.968V171.762L108.672 175.859L84.4332 161.816V156.022L92.6324 151.926L116.871 165.968Z"/>
</mask>
<path d="M116.871 165.968V171.762L108.672 175.859L84.4332 161.816V156.022L92.6324 151.926L116.871 165.968Z" fill="#CCDBF9"/>
<path d="M116.871 165.968H117.503V165.603L117.187 165.421L116.871 165.968ZM116.871 171.762L117.153 172.328L117.503 172.153V171.762H116.871ZM108.672 175.859L108.356 176.406L108.65 176.577L108.955 176.424L108.672 175.859ZM84.4332 161.816H83.8012V162.18L84.1164 162.363L84.4332 161.816ZM84.4332 156.022L84.1507 155.457L83.8012 155.632V156.022H84.4332ZM92.6324 151.926L92.9492 151.379L92.6545 151.208L92.3499 151.36L92.6324 151.926ZM116.871 165.968H116.239V171.762H116.871H117.503V165.968H116.871ZM116.871 171.762L116.588 171.197L108.39 175.294L108.672 175.859L108.955 176.424L117.153 172.328L116.871 171.762ZM108.672 175.859L108.989 175.312L84.75 161.269L84.4332 161.816L84.1164 162.363L108.356 176.406L108.672 175.859ZM84.4332 161.816H85.0651V156.022H84.4332H83.8012V161.816H84.4332ZM84.4332 156.022L84.7156 156.588L92.9148 152.491L92.6324 151.926L92.3499 151.36L84.1507 155.457L84.4332 156.022ZM92.6324 151.926L92.3156 152.472L116.554 166.514L116.871 165.968L117.187 165.421L92.9492 151.379L92.6324 151.926Z" fill="#3364ED" mask="url(#path-90-inside-3_566_14639)"/>
<path d="M116.205 165.947L108.683 169.705L85.0982 156.042L92.6197 152.284L116.205 165.947Z" fill="white" stroke="#3364ED" stroke-width="0.631963"/>
<path d="M108.691 169.533V175.619" stroke="#3364ED" stroke-width="0.631963"/>
<mask id="path-94-inside-4_566_14639" fill="white">
<path d="M108.928 175.441V181.235L100.73 185.333L76.4907 171.29V165.496L84.6899 161.399L108.928 175.441Z"/>
</mask>
<path d="M108.928 175.441V181.235L100.73 185.333L76.4907 171.29V165.496L84.6899 161.399L108.928 175.441Z" fill="#CCDBF9"/>
<path d="M108.928 175.441H109.56V175.077L109.245 174.894L108.928 175.441ZM108.928 181.235L109.211 181.8L109.56 181.626V181.235H108.928ZM100.73 185.333L100.413 185.88L100.708 186.05L101.012 185.898L100.73 185.333ZM76.4907 171.29H75.8587V171.654L76.1739 171.837L76.4907 171.29ZM76.4907 165.496L76.2082 164.931L75.8587 165.105V165.496H76.4907ZM84.6899 161.399L85.0067 160.852L84.712 160.682L84.4074 160.834L84.6899 161.399ZM108.928 175.441H108.296V181.235H108.928H109.56V175.441H108.928ZM108.928 181.235L108.646 180.67L100.447 184.767L100.73 185.333L101.012 185.898L109.211 181.8L108.928 181.235ZM100.73 185.333L101.047 184.786L76.8075 170.743L76.4907 171.29L76.1739 171.837L100.413 185.88L100.73 185.333ZM76.4907 171.29H77.1226V165.496H76.4907H75.8587V171.29H76.4907ZM76.4907 165.496L76.7731 166.061L84.9723 161.964L84.6899 161.399L84.4074 160.834L76.2082 164.931L76.4907 165.496ZM84.6899 161.399L84.3731 161.946L108.611 175.988L108.928 175.441L109.245 174.894L85.0067 160.852L84.6899 161.399Z" fill="#3364ED" mask="url(#path-94-inside-4_566_14639)"/>
<path d="M108.262 175.421L100.741 179.178L77.1557 165.515L84.6772 161.758L108.262 175.421Z" fill="white" stroke="#3364ED" stroke-width="0.631963"/>
<path d="M100.748 179.007V185.092" stroke="#3364ED" stroke-width="0.631963"/>
<mask id="path-98-inside-5_566_14639" fill="white">
<path d="M100.986 184.864V190.658L92.7873 194.755L68.548 180.712V174.918L76.7473 170.822L100.986 184.864Z"/>
</mask>
<path d="M100.986 184.864V190.658L92.7873 194.755L68.548 180.712V174.918L76.7473 170.822L100.986 184.864Z" fill="#CCDBF9"/>
<path d="M100.986 184.864H101.617V184.5L101.302 184.317L100.986 184.864ZM100.986 190.658L101.268 191.223L101.617 191.048V190.658H100.986ZM92.7873 194.755L92.4705 195.302L92.7652 195.473L93.0698 195.321L92.7873 194.755ZM68.548 180.712H67.9161V181.077L68.2312 181.259L68.548 180.712ZM68.548 174.918L68.2656 174.353L67.9161 174.528V174.918H68.548ZM76.7473 170.822L77.064 170.275L76.7694 170.104L76.4648 170.256L76.7473 170.822ZM100.986 184.864H100.354V190.658H100.986H101.617V184.864H100.986ZM100.986 190.658L100.703 190.092L92.5048 194.19L92.7873 194.755L93.0698 195.321L101.268 191.223L100.986 190.658ZM92.7873 194.755L93.1041 194.209L68.8648 180.166L68.548 180.712L68.2312 181.259L92.4705 195.302L92.7873 194.755ZM68.548 180.712H69.18V174.918H68.548H67.9161V180.712H68.548ZM68.548 174.918L68.8305 175.484L77.0297 171.387L76.7473 170.822L76.4648 170.256L68.2656 174.353L68.548 174.918ZM76.7473 170.822L76.4305 171.369L100.669 185.411L100.986 184.864L101.302 184.317L77.064 170.275L76.7473 170.822Z" fill="#3364ED" mask="url(#path-98-inside-5_566_14639)"/>
<path d="M100.32 184.843L92.798 188.601L69.2131 174.938L76.7346 171.18L100.32 184.843Z" fill="white" stroke="#3364ED" stroke-width="0.631963"/>
<path d="M92.8055 188.429V194.515" stroke="#3364ED" stroke-width="0.631963"/>
<mask id="path-102-inside-6_566_14639" fill="white">
<path d="M93.043 194.337V200.131L84.8448 204.229L60.6055 190.186V184.392L68.8047 180.295L93.043 194.337Z"/>
</mask>
<path d="M93.043 194.337V200.131L84.8448 204.229L60.6055 190.186V184.392L68.8047 180.295L93.043 194.337Z" fill="#CCDBF9"/>
<path d="M93.043 194.337H93.675V193.973L93.3598 193.79L93.043 194.337ZM93.043 200.131L93.3256 200.696L93.675 200.522V200.131H93.043ZM84.8448 204.229L84.528 204.776L84.8227 204.946L85.1273 204.794L84.8448 204.229ZM60.6055 190.186H59.9736V190.55L60.2887 190.733L60.6055 190.186ZM60.6055 184.392L60.3231 183.827L59.9736 184.001V184.392H60.6055ZM68.8047 180.295L69.1215 179.748L68.8269 179.578L68.5223 179.73L68.8047 180.295ZM93.043 194.337H92.4111V200.131H93.043H93.675V194.337H93.043ZM93.043 200.131L92.7605 199.566L84.5622 203.663L84.8448 204.229L85.1273 204.794L93.3256 200.696L93.043 200.131ZM84.8448 204.229L85.1616 203.682L60.9223 189.639L60.6055 190.186L60.2887 190.733L84.528 204.776L84.8448 204.229ZM60.6055 190.186H61.2375V184.392H60.6055H59.9736V190.186H60.6055ZM60.6055 184.392L60.888 184.957L69.0872 180.86L68.8047 180.295L68.5223 179.73L60.3231 183.827L60.6055 184.392ZM68.8047 180.295L68.488 180.842L92.7262 194.884L93.043 194.337L93.3598 193.79L69.1215 179.748L68.8047 180.295Z" fill="#3364ED" mask="url(#path-102-inside-6_566_14639)"/>
<path d="M92.377 194.317L84.8555 198.074L61.2706 184.411L68.7921 180.654L92.377 194.317Z" fill="white" stroke="#3364ED" stroke-width="0.631963"/>
<path d="M84.8629 197.903V203.989" stroke="#3364ED" stroke-width="0.631963"/>
<mask id="path-106-inside-7_566_14639" fill="white">
<path d="M71.2652 139.851V145.646L63.066 149.742L38.8277 135.7V129.906L47.0269 125.809L71.2652 139.851Z"/>
</mask>
<path d="M71.2652 139.851V145.646L63.066 149.742L38.8277 135.7V129.906L47.0269 125.809L71.2652 139.851Z" fill="#CCDBF9"/>
<path d="M71.2652 139.851H71.8972V139.487L71.582 139.304L71.2652 139.851ZM71.2652 145.646L71.5476 146.211L71.8972 146.037V145.646H71.2652ZM63.066 149.742L62.7492 150.289L63.0438 150.459L63.3484 150.307L63.066 149.742ZM38.8277 135.7H38.1957V136.064L38.5109 136.247L38.8277 135.7ZM38.8277 129.906L38.5452 129.34L38.1957 129.515V129.906H38.8277ZM47.0269 125.809L47.3437 125.262L47.0491 125.092L46.7445 125.244L47.0269 125.809ZM71.2652 139.851H70.6332V145.646H71.2652H71.8972V139.851H71.2652ZM71.2652 145.646L70.9828 145.081L62.7836 149.176L63.066 149.742L63.3484 150.307L71.5476 146.211L71.2652 145.646ZM63.066 149.742L63.3828 149.195L39.1445 135.153L38.8277 135.7L38.5109 136.247L62.7492 150.289L63.066 149.742ZM38.8277 135.7H39.4597V129.906H38.8277H38.1957V135.7H38.8277ZM38.8277 129.906L39.1102 130.471L47.3094 126.374L47.0269 125.809L46.7445 125.244L38.5452 129.34L38.8277 129.906ZM47.0269 125.809L46.7101 126.356L70.9484 140.398L71.2652 139.851L71.582 139.304L47.3437 125.262L47.0269 125.809Z" fill="#3364ED" mask="url(#path-106-inside-7_566_14639)"/>
<path d="M70.5992 139.831L63.0777 143.588L39.4927 129.925L47.0142 126.167L70.5992 139.831Z" fill="white" stroke="#3364ED" stroke-width="0.631963"/>
<path d="M63.085 143.417V149.502" stroke="#3364ED" stroke-width="0.631963"/>
<mask id="path-110-inside-8_566_14639" fill="white">
<path d="M63.3226 149.325V155.12L55.1244 159.216L30.8851 145.173V139.379L39.0844 135.283L63.3226 149.325Z"/>
</mask>
<path d="M63.3226 149.325V155.12L55.1244 159.216L30.8851 145.173V139.379L39.0844 135.283L63.3226 149.325Z" fill="#CCDBF9"/>
<path d="M63.3226 149.325H63.9546V148.96L63.6394 148.778L63.3226 149.325ZM63.3226 155.12L63.6051 155.685L63.9546 155.51V155.12H63.3226ZM55.1244 159.216L54.8076 159.763L55.1023 159.934L55.4069 159.782L55.1244 159.216ZM30.8851 145.173H30.2532V145.538L30.5683 145.72L30.8851 145.173ZM30.8851 139.379L30.6027 138.814L30.2532 138.989V139.379H30.8851ZM39.0844 135.283L39.4011 134.736L39.1065 134.565L38.8019 134.717L39.0844 135.283ZM63.3226 149.325H62.6907V155.12H63.3226H63.9546V149.325H63.3226ZM63.3226 155.12L63.0401 154.554L54.8419 158.651L55.1244 159.216L55.4069 159.782L63.6051 155.685L63.3226 155.12ZM55.1244 159.216L55.4412 158.669L31.2019 144.627L30.8851 145.173L30.5683 145.72L54.8076 159.763L55.1244 159.216ZM30.8851 145.173H31.5171V139.379H30.8851H30.2532V145.173H30.8851ZM30.8851 139.379L31.1676 139.945L39.3668 135.848L39.0844 135.283L38.8019 134.717L30.6027 138.814L30.8851 139.379ZM39.0844 135.283L38.7676 135.83L63.0058 149.872L63.3226 149.325L63.6394 148.778L39.4011 134.736L39.0844 135.283Z" fill="#3364ED" mask="url(#path-110-inside-8_566_14639)"/>
<path d="M62.6566 149.304L55.1351 153.062L31.5502 139.399L39.0717 135.641L62.6566 149.304Z" fill="white" stroke="#3364ED" stroke-width="0.631963"/>
<path d="M55.1425 152.89V158.976" stroke="#3364ED" stroke-width="0.631963"/>
<mask id="path-114-inside-9_566_14639" fill="white">
<path d="M55.38 158.747V164.542L47.1818 168.639L22.9425 154.596V148.802L31.1417 144.705L55.38 158.747Z"/>
</mask>
<path d="M55.38 158.747V164.542L47.1818 168.639L22.9425 154.596V148.802L31.1417 144.705L55.38 158.747Z" fill="#CCDBF9"/>
<path d="M55.38 158.747H56.012V158.383L55.6968 158.2L55.38 158.747ZM55.38 164.542L55.6625 165.107L56.012 164.933V164.542H55.38ZM47.1818 168.639L46.865 169.185L47.1596 169.356L47.4643 169.204L47.1818 168.639ZM22.9425 154.596H22.3105V154.96L22.6257 155.143L22.9425 154.596ZM22.9425 148.802L22.66 148.236L22.3105 148.411V148.802H22.9425ZM31.1417 144.705L31.4585 144.158L31.1639 143.988L30.8593 144.14L31.1417 144.705ZM55.38 158.747H54.748V164.542H55.38H56.012V158.747H55.38ZM55.38 164.542L55.0975 163.977L46.8993 168.073L47.1818 168.639L47.4643 169.204L55.6625 165.107L55.38 164.542ZM47.1818 168.639L47.4986 168.092L23.2593 154.049L22.9425 154.596L22.6257 155.143L46.865 169.185L47.1818 168.639ZM22.9425 154.596H23.5745V148.802H22.9425H22.3105V154.596H22.9425ZM22.9425 148.802L23.225 149.367L31.4242 145.27L31.1417 144.705L30.8593 144.14L22.66 148.236L22.9425 148.802ZM31.1417 144.705L30.8249 145.252L55.0632 159.294L55.38 158.747L55.6968 158.2L31.4585 144.158L31.1417 144.705Z" fill="#3364ED" mask="url(#path-114-inside-9_566_14639)"/>
<path d="M54.714 158.727L47.1925 162.484L23.6075 148.821L31.129 145.063L54.714 158.727Z" fill="white" stroke="#3364ED" stroke-width="0.631963"/>
<path d="M47.2 162.313V168.398" stroke="#3364ED" stroke-width="0.631963"/>
<mask id="path-118-inside-10_566_14639" fill="white">
<path d="M47.4375 168.221V174.015L39.2393 178.112L15 164.07V158.276L23.1992 154.179L47.4375 168.221Z"/>
</mask>
<path d="M47.4375 168.221V174.015L39.2393 178.112L15 164.07V158.276L23.1992 154.179L47.4375 168.221Z" fill="#CCDBF9"/>
<path d="M47.4375 168.221H48.0695V167.857L47.7543 167.674L47.4375 168.221ZM47.4375 174.015L47.72 174.58L48.0695 174.406V174.015H47.4375ZM39.2393 178.112L38.9225 178.658L39.2171 178.829L39.5217 178.677L39.2393 178.112ZM15 164.07H14.368V164.434L14.6832 164.616L15 164.07ZM15 158.276L14.7175 157.71L14.368 157.885V158.276H15ZM23.1992 154.179L23.516 153.632L23.2214 153.461L22.9168 153.614L23.1992 154.179ZM47.4375 168.221H46.8055V174.015H47.4375H48.0695V168.221H47.4375ZM47.4375 174.015L47.155 173.45L38.9568 177.546L39.2393 178.112L39.5217 178.677L47.72 174.58L47.4375 174.015ZM39.2393 178.112L39.556 177.565L15.3168 163.523L15 164.07L14.6832 164.616L38.9225 178.658L39.2393 178.112ZM15 164.07H15.632V158.276H15H14.368V164.07H15ZM15 158.276L15.2825 158.841L23.4817 154.744L23.1992 154.179L22.9168 153.614L14.7175 157.71L15 158.276ZM23.1992 154.179L22.8824 154.726L47.1207 168.768L47.4375 168.221L47.7543 167.674L23.516 153.632L23.1992 154.179Z" fill="#3364ED" mask="url(#path-118-inside-10_566_14639)"/>
<path d="M46.7715 168.2L39.25 171.958L15.665 158.295L23.1865 154.537L46.7715 168.2Z" fill="white" stroke="#3364ED" stroke-width="0.631963"/>
<path d="M39.2574 171.786V177.872" stroke="#3364ED" stroke-width="0.631963"/>
<path fill-rule="evenodd" clip-rule="evenodd" d="M124.362 191.928C124.767 191.225 125.668 190.985 126.374 191.39L147.805 203.676C148.515 204.083 148.761 204.987 148.354 205.692L148.332 205.729C147.927 206.431 147.027 206.672 146.32 206.266L124.889 193.981C124.179 193.573 123.933 192.67 124.341 191.964L124.362 191.928Z" fill="url(#paint36_linear_566_14639)"/>
<path fill-rule="evenodd" clip-rule="evenodd" d="M147.187 206.564C148.001 206.564 148.661 205.896 148.661 205.071C148.661 204.247 148.001 203.578 147.187 203.578C146.373 203.578 145.713 204.247 145.713 205.071C145.713 205.896 146.373 206.564 147.187 206.564Z" fill="#FF6300"/>
<path fill-rule="evenodd" clip-rule="evenodd" d="M90.2858 96.3057C90.6913 95.6033 91.5913 95.363 92.2982 95.7683L113.729 108.054C114.439 108.461 114.685 109.365 114.277 110.07L114.256 110.107C113.851 110.809 112.951 111.05 112.244 110.644L90.8132 98.3587C90.1031 97.9516 89.8572 97.048 90.2645 96.3426L90.2858 96.3057Z" fill="url(#paint37_linear_566_14639)"/>
<path fill-rule="evenodd" clip-rule="evenodd" d="M113.111 110.942C113.925 110.942 114.585 110.274 114.585 109.449C114.585 108.625 113.925 107.956 113.111 107.956C112.297 107.956 111.637 108.625 111.637 109.449C111.637 110.274 112.297 110.942 113.111 110.942Z" fill="#3DBEFF"/>
<path fill-rule="evenodd" clip-rule="evenodd" d="M199.883 42.3753C205.543 42.3753 210.132 40.0826 210.132 37.2544C210.132 34.4262 205.543 32.1335 199.883 32.1335C194.223 32.1335 189.635 34.4262 189.635 37.2544C189.635 40.0826 194.223 42.3753 199.883 42.3753Z" fill="#3364ED" fill-opacity="0.3"/>
<path fill-rule="evenodd" clip-rule="evenodd" d="M199.883 38.9187C202.147 38.9187 203.982 38.0017 203.982 36.8704C203.982 35.7391 202.147 34.822 199.883 34.822C197.619 34.822 195.784 35.7391 195.784 36.8704C195.784 38.0017 197.619 38.9187 199.883 38.9187Z" fill="#4E83FF" stroke="white" stroke-width="1.24969"/>
<path d="M199.883 0.247114V24.5803" stroke="url(#paint38_linear_566_14639)" stroke-width="1.26393" stroke-linecap="round" stroke-linejoin="round" stroke-dasharray="3.79"/>
<path d="M199.883 23.8095V36.1043" stroke="#4B84FF" stroke-width="1.24969" stroke-linecap="round" stroke-linejoin="round"/>
<path d="M252.027 142.543L213.039 165.015L212.915 126.871L251.903 104.4L252.027 142.543Z" fill="url(#paint39_linear_566_14639)"/>
<path d="M249.344 140.072L216.538 159.03L216.433 129.382L249.239 110.424L249.344 140.072Z" fill="url(#paint40_linear_566_14639)" fill-opacity="0.6"/>
<path d="M249.187 139.982L216.693 158.76L216.59 129.471L249.084 110.693L249.187 139.982Z" stroke="#78A7F6" stroke-opacity="0.299592" stroke-width="0.312423"/>
<path d="M221.396 126.628L216.547 129.476V134.736" stroke="#78A7F6" stroke-width="1.24969" stroke-linecap="round"/>
<path d="M244.395 113.353L249.244 110.479V115.74" stroke="#78A7F6" stroke-width="1.24969" stroke-linecap="round"/>
<path d="M244.351 142.825L249.244 140.043V134.783" stroke="#78A7F6" stroke-width="1.24969" stroke-linecap="round"/>
<path d="M221.396 156.204L216.547 158.98V153.72" stroke="#78A7F6" stroke-width="1.24969" stroke-linecap="round"/>
<path d="M209.384 162.892L209.259 124.749L212.915 126.871L213.039 165.014L209.384 162.892Z" fill="url(#paint41_linear_566_14639)"/>
<path d="M212.915 126.871L209.259 124.749L248.247 102.277L251.903 104.399L212.915 126.871V126.871Z" fill="url(#paint42_linear_566_14639)"/>
<path fill-rule="evenodd" clip-rule="evenodd" d="M240.94 121.235L222.062 132.058V145.331L221.411 145.704V131.783L222.062 131.41L241.591 120.214V120.861V124.746L240.94 125.119V121.235ZM227.595 141.511L228.897 140.765V141.412L227.595 142.159V141.511ZM234.105 137.779L235.407 137.033V137.68L234.105 138.426V137.779Z" fill="#78A7F6"/>
<path fill-rule="evenodd" clip-rule="evenodd" d="M238.011 137.806C236.932 138.424 236.058 138.056 236.058 136.983C236.058 135.91 236.932 134.539 238.011 133.921C239.09 133.303 239.964 133.671 239.964 134.744C239.964 135.817 239.09 137.188 238.011 137.806ZM240.94 139.687L235.082 143.046C235.082 141.437 236.393 139.381 238.011 138.453C239.629 137.526 240.94 138.078 240.94 139.687Z" fill="#78A7F6"/>
<path fill-rule="evenodd" clip-rule="evenodd" d="M241.266 130.113C242.884 129.185 244.195 129.738 244.195 131.347V132.642L240.595 134.706C240.608 134.592 240.615 134.48 240.615 134.371C240.615 133.199 239.833 132.658 238.76 132.953C239.274 131.817 240.204 130.722 241.266 130.113ZM241.266 129.465C240.187 130.084 239.313 129.715 239.313 128.643C239.313 127.57 240.187 126.199 241.266 125.58C242.345 124.962 243.219 125.33 243.219 126.403C243.219 127.476 242.345 128.847 241.266 129.465Z" fill="#4C80FF"/>
<path fill-rule="evenodd" clip-rule="evenodd" d="M231.501 141.538C230.423 142.156 229.548 141.788 229.548 140.715C229.548 139.643 230.423 138.272 231.501 137.653C232.58 137.035 233.454 137.403 233.454 138.476C233.454 139.549 232.58 140.92 231.501 141.538ZM234.431 143.42L228.572 146.779C228.572 145.169 229.883 143.113 231.501 142.185C233.119 141.258 234.431 141.811 234.431 143.42Z" fill="#78A7F6"/>
<path fill-rule="evenodd" clip-rule="evenodd" d="M224.991 145.27C223.913 145.888 223.038 145.52 223.038 144.447C223.038 143.374 223.913 142.004 224.991 141.385C226.07 140.767 226.944 141.135 226.944 142.208C226.944 143.281 226.07 144.652 224.991 145.27ZM227.921 147.152L222.062 150.51C222.062 148.901 223.374 146.845 224.991 145.917C226.609 144.99 227.921 145.542 227.921 147.152Z" fill="#78A7F6"/>
<path fill-rule="evenodd" clip-rule="evenodd" d="M226.944 135.086L228.246 134.339V136.929L226.944 137.676V135.086ZM229.548 129.708L230.85 128.962V135.436L229.548 136.183V129.708ZM232.152 128.863L233.454 128.116V133.944L232.152 134.69V128.863ZM234.756 129.313L236.058 128.566V132.451L234.756 133.197V129.313ZM226.944 138.323L228.246 137.577V138.224L226.944 138.971V138.323ZM229.548 136.83L230.85 136.084V136.731L229.548 137.478V136.83ZM232.152 135.338L233.454 134.591V135.239L232.152 135.985V135.338ZM234.756 133.845L236.058 133.098V133.746L234.756 134.492V133.845Z" fill="#4C80FF"/>
</g>
<defs>
<linearGradient id="paint0_linear_566_14639" x1="231.181" y1="166.141" x2="194.723" y2="217.209" gradientUnits="userSpaceOnUse">
<stop stop-color="#575772"/>
<stop offset="1" stop-color="#323352"/>
</linearGradient>
<linearGradient id="paint1_linear_566_14639" x1="172.875" y1="240.025" x2="136.418" y2="188.957" gradientUnits="userSpaceOnUse">
<stop stop-color="#575772"/>
<stop offset="1" stop-color="#323352"/>
</linearGradient>
<linearGradient id="paint2_linear_566_14639" x1="257.782" y1="150.564" x2="141.774" y2="150.564" gradientUnits="userSpaceOnUse">
<stop stop-color="#575772"/>
<stop offset="1" stop-color="#323352"/>
</linearGradient>
<linearGradient id="paint3_linear_566_14639" x1="257.782" y1="150.564" x2="141.774" y2="150.564" gradientUnits="userSpaceOnUse">
<stop stop-color="#575772"/>
<stop offset="1" stop-color="#323352"/>
</linearGradient>
<linearGradient id="paint4_linear_566_14639" x1="214.813" y1="206.769" x2="223.716" y2="157.098" gradientUnits="userSpaceOnUse">
<stop stop-color="#FF9A29"/>
<stop offset="0.487744" stop-color="white"/>
<stop offset="1" stop-color="#3094FF"/>
</linearGradient>
<linearGradient id="paint5_linear_566_14639" x1="224.736" y1="160.796" x2="224.736" y2="182.816" gradientUnits="userSpaceOnUse">
<stop stop-color="#56FFF2"/>
<stop offset="1" stop-color="#4B84FF"/>
</linearGradient>
<linearGradient id="paint6_linear_566_14639" x1="242.671" y1="148.506" x2="242.671" y2="170.525" gradientUnits="userSpaceOnUse">
<stop stop-color="#56FFF2"/>
<stop offset="1" stop-color="#4B84FF"/>
</linearGradient>
<linearGradient id="paint7_linear_566_14639" x1="277.72" y1="127.266" x2="225.06" y2="86.1692" gradientUnits="userSpaceOnUse">
<stop stop-color="#3364ED"/>
<stop offset="1" stop-color="#C3E4FF"/>
</linearGradient>
<linearGradient id="paint8_linear_566_14639" x1="151.153" y1="202.739" x2="213.806" y2="190.673" gradientUnits="userSpaceOnUse">
<stop stop-color="#3364ED"/>
<stop offset="1" stop-color="#C3E4FF"/>
</linearGradient>
<linearGradient id="paint9_linear_566_14639" x1="257.782" y1="119.026" x2="257.782" y2="52.3452" gradientUnits="userSpaceOnUse">
<stop stop-color="#C3E4FF"/>
<stop offset="1" stop-color="#648DFF"/>
</linearGradient>
<linearGradient id="paint10_linear_566_14639" x1="227.696" y1="101.746" x2="227.696" y2="64.4483" gradientUnits="userSpaceOnUse">
<stop stop-color="#FF9A29"/>
<stop offset="1" stop-color="#C3E4FF" stop-opacity="0.01"/>
</linearGradient>
<linearGradient id="paint11_linear_566_14639" x1="183.4" y1="34.0577" x2="167.522" y2="47.7925" gradientUnits="userSpaceOnUse">
<stop stop-color="#FF924C"/>
<stop offset="1" stop-color="#77D1FF"/>
</linearGradient>
<linearGradient id="paint12_linear_566_14639" x1="223.588" y1="23.7563" x2="176.178" y2="23.7563" gradientUnits="userSpaceOnUse">
<stop stop-color="#8AE3FF"/>
<stop offset="1" stop-color="#52C4FF"/>
</linearGradient>
<linearGradient id="paint13_linear_566_14639" x1="214.006" y1="36.2383" x2="232.14" y2="47.7901" gradientUnits="userSpaceOnUse">
<stop stop-color="#FEAC78"/>
<stop offset="1" stop-color="#31ACEC"/>
</linearGradient>
<linearGradient id="paint14_linear_566_14639" x1="194.013" y1="70.8302" x2="194.013" y2="41.0401" gradientUnits="userSpaceOnUse">
<stop stop-color="white"/>
<stop offset="1" stop-color="#5AC8FF"/>
</linearGradient>
<linearGradient id="paint15_linear_566_14639" x1="204.12" y1="76.3463" x2="204.12" y2="40.8152" gradientUnits="userSpaceOnUse">
<stop stop-color="white"/>
<stop offset="1" stop-color="#5AC8FF"/>
</linearGradient>
<linearGradient id="paint16_linear_566_14639" x1="228.579" y1="51.2566" x2="228.579" y2="17.9231" gradientUnits="userSpaceOnUse">
<stop stop-color="white"/>
<stop offset="1" stop-color="#5AC8FF"/>
</linearGradient>
<linearGradient id="paint17_linear_566_14639" x1="134.199" y1="225.617" x2="185.852" y2="81.082" gradientUnits="userSpaceOnUse">
<stop stop-color="#B1C6FF"/>
<stop offset="1" stop-color="#E1EBF4"/>
</linearGradient>
<linearGradient id="paint18_linear_566_14639" x1="98.1152" y1="219.984" x2="165.176" y2="92.1762" gradientUnits="userSpaceOnUse">
<stop stop-color="#B1C6FF"/>
<stop offset="1" stop-color="#E1EBF4"/>
</linearGradient>
<linearGradient id="paint19_linear_566_14639" x1="171.249" y1="102.93" x2="138.329" y2="121.936" gradientUnits="userSpaceOnUse">
<stop stop-color="#10B3FF"/>
<stop offset="1" stop-color="#C3E4FF" stop-opacity="0.01"/>
</linearGradient>
<linearGradient id="paint20_linear_566_14639" x1="115.732" y1="150.042" x2="115.732" y2="132.234" gradientUnits="userSpaceOnUse">
<stop stop-color="#8AE3FF"/>
<stop offset="1" stop-color="#52C4FF" stop-opacity="0.01"/>
</linearGradient>
<linearGradient id="paint21_linear_566_14639" x1="78.8268" y1="107.599" x2="78.8268" y2="150.042" gradientUnits="userSpaceOnUse">
<stop stop-color="white"/>
<stop offset="1" stop-color="#5AC8FF"/>
</linearGradient>
<linearGradient id="paint22_linear_566_14639" x1="98.6129" y1="141.708" x2="114.058" y2="144.409" gradientUnits="userSpaceOnUse">
<stop stop-color="#50CEF5"/>
<stop offset="1" stop-color="#40ABE2"/>
</linearGradient>
<linearGradient id="paint23_linear_566_14639" x1="98.6695" y1="114.719" x2="83.275" y2="117.346" gradientUnits="userSpaceOnUse">
<stop stop-color="#8AE3FF"/>
<stop offset="1" stop-color="#52C4FF"/>
</linearGradient>
<linearGradient id="paint24_linear_566_14639" x1="100.377" y1="107.58" x2="100.377" y2="149.918" gradientUnits="userSpaceOnUse">
<stop stop-color="white"/>
<stop offset="1" stop-color="#5AC8FF"/>
</linearGradient>
<linearGradient id="paint25_linear_566_14639" x1="55.5333" y1="108.684" x2="55.5333" y2="122.637" gradientUnits="userSpaceOnUse">
<stop stop-color="#8AE3FF"/>
<stop offset="1" stop-color="#77D1FF"/>
</linearGradient>
<linearGradient id="paint26_linear_566_14639" x1="77.9045" y1="97.7644" x2="53.3528" y2="97.7644" gradientUnits="userSpaceOnUse">
<stop stop-color="#8AE3FF"/>
<stop offset="1" stop-color="#52C4FF"/>
</linearGradient>
<linearGradient id="paint27_linear_566_14639" x1="67.6928" y1="101.311" x2="80.877" y2="103.826" gradientUnits="userSpaceOnUse">
<stop stop-color="#77D1FF"/>
<stop offset="1" stop-color="#31ACEC"/>
</linearGradient>
<linearGradient id="paint28_linear_566_14639" x1="52.9079" y1="106.736" x2="52.9079" y2="125.371" gradientUnits="userSpaceOnUse">
<stop stop-color="white"/>
<stop offset="1" stop-color="#5AC8FF"/>
</linearGradient>
<linearGradient id="paint29_linear_566_14639" x1="78.2951" y1="106.619" x2="78.2951" y2="125.063" gradientUnits="userSpaceOnUse">
<stop stop-color="white"/>
<stop offset="1" stop-color="#5AC8FF"/>
</linearGradient>
<linearGradient id="paint30_linear_566_14639" x1="80.4887" y1="112.039" x2="80.4887" y2="94.7363" gradientUnits="userSpaceOnUse">
<stop stop-color="white"/>
<stop offset="1" stop-color="#5AC8FF"/>
</linearGradient>
<linearGradient id="paint31_linear_566_14639" x1="156.327" y1="170.013" x2="156.327" y2="154.138" gradientUnits="userSpaceOnUse">
<stop stop-color="#8AE3FF"/>
<stop offset="1" stop-color="#52C4FF" stop-opacity="0.01"/>
</linearGradient>
<linearGradient id="paint32_linear_566_14639" x1="152.121" y1="163.997" x2="152.121" y2="145.433" gradientUnits="userSpaceOnUse">
<stop stop-color="#5DCAFF"/>
<stop offset="1" stop-color="white"/>
</linearGradient>
<linearGradient id="paint33_linear_566_14639" x1="153.765" y1="138.776" x2="129.169" y2="138.776" gradientUnits="userSpaceOnUse">
<stop stop-color="#8AE3FF"/>
<stop offset="1" stop-color="#52C4FF"/>
</linearGradient>
<linearGradient id="paint34_linear_566_14639" x1="126.223" y1="135.832" x2="126.223" y2="170.398" gradientUnits="userSpaceOnUse">
<stop stop-color="white"/>
<stop offset="1" stop-color="#5AC8FF"/>
</linearGradient>
<linearGradient id="paint35_linear_566_14639" x1="159.622" y1="155.61" x2="159.622" y2="136.216" gradientUnits="userSpaceOnUse">
<stop stop-color="white"/>
<stop offset="1" stop-color="#5AC8FF"/>
</linearGradient>
<linearGradient id="paint36_linear_566_14639" x1="147.402" y1="203.363" x2="122.36" y2="188.905" gradientUnits="userSpaceOnUse">
<stop stop-color="#FFA268"/>
<stop offset="1" stop-color="#E8F4FF" stop-opacity="0.01"/>
</linearGradient>
<linearGradient id="paint37_linear_566_14639" x1="113.325" y1="107.741" x2="88.2834" y2="93.2829" gradientUnits="userSpaceOnUse">
<stop stop-color="#9DDEFF"/>
<stop offset="1" stop-color="#E8F4FF" stop-opacity="0.01"/>
</linearGradient>
<linearGradient id="paint38_linear_566_14639" x1="198.602" y1="0" x2="198.602" y2="24.5803" gradientUnits="userSpaceOnUse">
<stop stop-color="#56FFF2"/>
<stop offset="1" stop-color="#4B84FF"/>
</linearGradient>
<linearGradient id="paint39_linear_566_14639" x1="232.427" y1="186.786" x2="279.589" y2="156.495" gradientUnits="userSpaceOnUse">
<stop stop-color="#575772"/>
<stop offset="1" stop-color="#323352"/>
</linearGradient>
<linearGradient id="paint40_linear_566_14639" x1="219.267" y1="140.082" x2="242.93" y2="162.824" gradientUnits="userSpaceOnUse">
<stop stop-color="#446DB2"/>
<stop offset="1" stop-color="#3C3D5B" stop-opacity="0.01"/>
</linearGradient>
<linearGradient id="paint41_linear_566_14639" x1="214.784" y1="146.633" x2="207.277" y2="145.869" gradientUnits="userSpaceOnUse">
<stop stop-color="#575772"/>
<stop offset="1" stop-color="#323352"/>
</linearGradient>
<linearGradient id="paint42_linear_566_14639" x1="230.489" y1="91.9565" x2="211.141" y2="125.704" gradientUnits="userSpaceOnUse">
<stop stop-color="#3364ED"/>
<stop offset="1" stop-color="#C3E4FF"/>
</linearGradient>
<clipPath id="clip0_566_14639">
<rect width="269" height="248" fill="white"/>
</clipPath>
</defs>
</svg>
