<svg width="12" height="13" viewBox="0 0 12 13" fill="none" xmlns="http://www.w3.org/2000/svg">
<path d="M0.292893 10.7929C-0.0976311 11.1834 -0.0976311 11.8166 0.292893 12.2071C0.683418 12.5976 1.31658 12.5976 1.70711 12.2071L0.292893 10.7929ZM12 1.5C12 0.947715 11.5523 0.5 11 0.5H2C1.44772 0.5 1 0.947715 1 1.5C1 2.05228 1.44772 2.5 2 2.5H10V10.5C10 11.0523 10.4477 11.5 11 11.5C11.5523 11.5 12 11.0523 12 10.5V1.5ZM1 11.5L1.70711 12.2071L11.7071 2.20711L11 1.5L10.2929 0.792893L0.292893 10.7929L1 11.5Z" fill="white"/>
</svg>
