<svg width="40" height="40" viewBox="0 0 40 40" fill="none" xmlns="http://www.w3.org/2000/svg">
<g clip-path="url(#clip0_568_15202)">
<path d="M28 0H12C5.37258 0 0 5.37258 0 12V28C0 34.6274 5.37258 40 12 40H28C34.6274 40 40 34.6274 40 28V12C40 5.37258 34.6274 0 28 0Z" fill="#3465ED" fill-opacity="0.2"/>
<path fill-rule="evenodd" clip-rule="evenodd" d="M12.2393 18.3913C12.2537 14.1507 15.703 10.7247 19.9436 10.7391C24.1842 10.7535 27.6102 14.2029 27.5958 18.4435V18.5304C27.5436 21.287 26.0045 23.8348 24.1175 25.8261C23.0384 26.9467 21.8333 27.9388 20.5262 28.7826C20.1767 29.0849 19.6583 29.0849 19.3088 28.7826C17.3603 27.5144 15.6502 25.9131 14.2566 24.0522C13.0146 22.4294 12.3094 20.4597 12.2393 18.4174V18.3913Z" stroke="#3465ED" stroke-width="1.5" stroke-linecap="round" stroke-linejoin="round"/>
<path d="M19.9174 20.9999C21.2765 20.9999 22.3783 19.8981 22.3783 18.539C22.3783 17.1799 21.2765 16.0781 19.9174 16.0781C18.5583 16.0781 17.4565 17.1799 17.4565 18.539C17.4565 19.8981 18.5583 20.9999 19.9174 20.9999Z" stroke="#3465ED" stroke-width="1.5" stroke-linecap="round" stroke-linejoin="round"/>
</g>
<defs>
<clipPath id="clip0_568_15202">
<rect width="40" height="40" fill="white"/>
</clipPath>
</defs>
</svg>
