<svg width="24" height="24" viewBox="0 0 24 24" fill="none" xmlns="http://www.w3.org/2000/svg">
<path d="M3.625 21.7002L4.2497 22.4811L4.24972 22.481L3.625 21.7002ZM6.45216 19.4383L7.07688 20.2192L6.45216 19.4383ZM17 3V4C19.2091 4 21 5.79086 21 8H22H23C23 4.68629 20.3137 2 17 2V3ZM22 8H21V14H22H23V8H22ZM22 14H21C21 16.2091 19.2091 18 17 18V19V20C20.3137 20 23 17.3137 23 14H22ZM17 19V18H7.7016V19V20H17V19ZM6.45216 19.4383L5.82743 18.6575L3.00028 20.9193L3.625 21.7002L4.24972 22.481L7.07688 20.2192L6.45216 19.4383ZM3.625 21.7002L3.0003 20.9193L3 20.9189H2H1C1 22.5955 2.93982 23.529 4.2497 22.4811L3.625 21.7002ZM2 20.9189H3V8H2H1V20.9189H2ZM2 8H3C3 5.79086 4.79086 4 7 4V3V2C3.68629 2 1 4.68629 1 8H2ZM7 3V4H17V3V2H7V3ZM7.7016 19V18C7.02035 18 6.35939 18.2319 5.82743 18.6575L6.45216 19.4383L7.07688 20.2192C7.2542 20.0773 7.47452 20 7.7016 20V19Z" fill="#16A8DD"/>
<circle cx="7.04999" cy="11.0498" r="1" fill="#16A8DD" stroke="#16A8DD" stroke-width="0.5"/>
<circle cx="12.05" cy="11.0498" r="1" fill="#16A8DD" stroke="#16A8DD" stroke-width="0.5"/>
<circle cx="17.05" cy="11.0498" r="1" fill="#16A8DD" stroke="#16A8DD" stroke-width="0.5"/>
</svg>
