<svg width="47" height="47" viewBox="0 0 47 47" fill="none" xmlns="http://www.w3.org/2000/svg">
<circle cx="23.5" cy="23.5" r="23.5" fill="#1A1E38"/>
<rect width="24" height="24" transform="translate(12 12)" fill="#1A1E38"/>
<path d="M24 13.75C28.8251 13.75 32.75 17.6231 32.75 22.417C32.7499 25.3982 31.0115 28.3405 29.1689 30.4824C28.2364 31.5664 27.2461 32.482 26.373 33.1328C25.9374 33.4576 25.5186 33.7256 25.1406 33.916C24.7862 34.0945 24.3812 34.25 24 34.25C23.6188 34.25 23.2138 34.0945 22.8594 33.916C22.4814 33.7256 22.0626 33.4576 21.627 33.1328C20.7539 32.482 19.7636 31.5664 18.8311 30.4824C16.9885 28.3405 15.2501 25.3982 15.25 22.417C15.25 17.6231 19.1749 13.75 24 13.75ZM24 19C22.3431 19 21 20.3431 21 22C21 23.6569 22.3431 25 24 25C25.6569 25 27 23.6569 27 22C27 20.3431 25.6569 19 24 19Z" fill="#00FE8B"/>
</svg>
