<svg width="24" height="24" viewBox="0 0 24 24" fill="none" xmlns="http://www.w3.org/2000/svg">
<path d="M18.3037 12.8089L17.5705 12.1289L18.3037 12.8089ZM11.2326 5.73783L11.9126 6.47103L11.2326 5.73783ZM21.661 4.27232L22.6526 4.402L21.661 4.27232ZM19.7692 2.38046L19.8989 3.37202L19.8989 3.37202L19.7692 2.38046ZM6.4945 12.6506L7.3924 13.0908L6.4945 12.6506ZM11.3909 17.547L10.9507 16.6491L10.9507 16.6491L11.3909 17.547ZM8.40421 9.98043C8.01368 9.58991 7.38052 9.58991 6.98999 9.98043C6.59947 10.371 6.59947 11.0041 6.98999 11.3946L8.40421 9.98043ZM12.6468 17.0515C13.0374 17.442 13.6705 17.442 14.0611 17.0515C14.4516 16.661 14.4516 16.0278 14.0611 15.6373L12.6468 17.0515ZM6.63644 18.8193C7.02696 18.4287 7.02696 17.7956 6.63644 17.4051C6.24592 17.0145 5.61275 17.0145 5.22223 17.4051L6.63644 18.8193ZM2.3938 20.2335C2.00327 20.624 2.00327 21.2572 2.3938 21.6477C2.78432 22.0382 3.41749 22.0382 3.80801 21.6477L2.3938 20.2335ZM4.51512 16.6979C4.90564 16.3074 4.90564 15.6743 4.51512 15.2837C4.12459 14.8932 3.49143 14.8932 3.10091 15.2837L4.51512 16.6979ZM1.68669 16.6979C1.29617 17.0885 1.29617 17.7216 1.68669 18.1122C2.07722 18.5027 2.71038 18.5027 3.10091 18.1122L1.68669 16.6979ZM8.75776 20.9406C9.14828 20.5501 9.14828 19.9169 8.75776 19.5264C8.36723 19.1359 7.73407 19.1359 7.34355 19.5264L8.75776 20.9406ZM5.92933 20.9406C5.53881 21.3311 5.53881 21.9643 5.92933 22.3548C6.31986 22.7453 6.95302 22.7453 7.34355 22.3548L5.92933 20.9406ZM10.5962 21.082L11.5862 20.9406L11.5862 20.9406L10.5962 21.082ZM15.7581 17.6172L16.7481 17.4758L16.7481 17.4758L15.7581 17.6172ZM2.95946 13.4453L3.10089 12.4553L3.10088 12.4553L2.95946 13.4453ZM6.42429 8.2834L6.28286 9.27335L6.28286 9.27335L6.42429 8.2834ZM9.22005 17.1603L9.92715 16.4532L7.5883 14.1143L6.88119 14.8215L6.17408 15.5286L8.51294 17.8674L9.22005 17.1603ZM18.3037 12.8089L17.5705 12.1289C15.7107 14.1341 12.6728 15.8048 10.9507 16.6491L11.3909 17.547L11.8311 18.4449C13.5739 17.5905 16.9064 15.786 19.0369 13.4889L18.3037 12.8089ZM6.4945 12.6506L7.3924 13.0908C8.23666 11.3687 9.90736 8.33084 11.9126 6.47103L11.2326 5.73783L10.5526 5.00464C8.25548 7.13512 6.451 10.4676 5.59659 12.2104L6.4945 12.6506ZM21.661 4.27232L20.6695 4.14264C20.3664 6.46004 19.5657 9.97761 17.5705 12.1289L18.3037 12.8089L19.0369 13.4889C21.4895 10.8444 22.3433 6.76695 22.6526 4.402L21.661 4.27232ZM11.2326 5.73783L11.9126 6.47103C14.0639 4.4758 17.5815 3.6751 19.8989 3.37202L19.7692 2.38046L19.6395 1.38891C17.2745 1.69821 13.1971 2.55195 10.5526 5.00464L11.2326 5.73783ZM21.661 4.27232L22.6526 4.402C22.885 2.62531 21.4162 1.15654 19.6395 1.38891L19.7692 2.38046L19.8989 3.37202C20.373 3.31001 20.7315 3.6685 20.6695 4.14264L21.661 4.27232ZM6.88119 14.8215L7.5883 14.1143C7.29589 13.8219 7.23406 13.4138 7.3924 13.0908L6.4945 12.6506L5.59659 12.2104C5.03842 13.349 5.31552 14.67 6.17408 15.5286L6.88119 14.8215ZM9.22005 17.1603L8.51294 17.8674C9.3715 18.726 10.6925 19.0031 11.8311 18.4449L11.3909 17.547L10.9507 16.6491C10.6277 16.8074 10.2196 16.7456 9.92715 16.4532L9.22005 17.1603ZM7.6971 10.6875L6.98999 11.3946L12.6468 17.0515L13.354 16.3444L14.0611 15.6373L8.40421 9.98043L7.6971 10.6875ZM5.92933 18.1122L5.22223 17.4051L2.3938 20.2335L3.10091 20.9406L3.80801 21.6477L6.63644 18.8193L5.92933 18.1122ZM3.80801 15.9908L3.10091 15.2837L1.68669 16.6979L2.3938 17.4051L3.10091 18.1122L4.51512 16.6979L3.80801 15.9908ZM8.05065 20.2335L7.34355 19.5264L5.92933 20.9406L6.63644 21.6477L7.34355 22.3548L8.75776 20.9406L8.05065 20.2335ZM13.7075 7.50556L13.0004 6.79845C11.8288 7.97003 11.8288 9.86952 13.0004 11.0411L13.7075 10.334L14.4146 9.62688C14.0241 9.23635 14.0241 8.60319 14.4146 8.21267L13.7075 7.50556ZM13.7075 10.334L13.0004 11.0411C14.172 12.2127 16.0715 12.2127 17.243 11.0411L16.5359 10.334L15.8288 9.62688C15.4383 10.0174 14.8051 10.0174 14.4146 9.62688L13.7075 10.334ZM16.5359 10.334L17.243 11.0411C18.4146 9.86952 18.4146 7.97003 17.243 6.79845L16.5359 7.50556L15.8288 8.21267C16.2194 8.60319 16.2194 9.23636 15.8288 9.62688L16.5359 10.334ZM16.5359 7.50556L17.243 6.79845C16.0715 5.62688 14.172 5.62688 13.0004 6.79845L13.7075 7.50556L14.4146 8.21267C14.8051 7.82214 15.4383 7.82214 15.8288 8.21267L16.5359 7.50556ZM15.4753 18.4657L14.7682 17.7586L11.5862 20.9406L12.2933 21.6477L13.0004 22.3548L16.1824 19.1728L15.4753 18.4657ZM10.5962 21.082L11.5862 20.9406L11.1619 17.9707L10.172 18.1122L9.18202 18.2536L9.60629 21.2234L10.5962 21.082ZM15.4753 15.6373L14.4853 15.7787L14.7682 17.7586L15.7581 17.6172L16.7481 17.4758L16.4652 15.4959L15.4753 15.6373ZM12.2933 21.6477L11.5862 20.9406L11.5862 20.9406L10.5962 21.082L9.60629 21.2234C9.83936 22.855 11.835 23.5202 13.0004 22.3548L12.2933 21.6477ZM15.4753 18.4657L16.1824 19.1728C16.6275 18.7277 16.8371 18.099 16.7481 17.4758L15.7581 17.6172L14.7682 17.7586L14.7682 17.7586L15.4753 18.4657ZM5.57576 8.56624L4.86865 7.85913L1.68667 11.0411L2.39378 11.7482L3.10088 12.4553L6.28286 9.27335L5.57576 8.56624ZM2.95946 13.4453L2.81804 14.4352L5.78789 14.8595L5.92931 13.8695L6.07073 12.8796L3.10089 12.4553L2.95946 13.4453ZM8.40418 8.56624L8.54561 7.57629L6.56571 7.29345L6.42429 8.2834L6.28286 9.27335L8.26276 9.55619L8.40418 8.56624ZM2.39378 11.7482L1.68667 11.0411C0.521294 12.2065 1.18652 14.2022 2.81804 14.4352L2.95946 13.4453L3.10088 12.4553L3.10088 12.4553L2.39378 11.7482ZM5.57576 8.56624L6.28286 9.27335L6.28286 9.27335L6.42429 8.2834L6.56571 7.29345C5.94252 7.20442 5.31379 7.414 4.86865 7.85913L5.57576 8.56624Z" fill="#16A8DD"/>
</svg>
