<svg width="47" height="47" viewBox="0 0 47 47" fill="none" xmlns="http://www.w3.org/2000/svg">
<circle cx="23.5" cy="23.5" r="23.5" fill="#1A1E38"/>
<rect width="24" height="24" transform="translate(12 12)" fill="#1A1E38"/>
<path fill-rule="evenodd" clip-rule="evenodd" d="M32.307 30.9195C32.3614 30.9267 32.4159 30.9341 32.4703 30.9417L32.7438 30.9801C33.9346 31.1472 35 30.2396 35 29.058V28.1562C35 27.3112 34.4592 26.5573 33.649 26.2731C32.7129 25.9447 31.7466 25.7309 30.7711 25.6317C31.789 26.3676 32.4203 27.5593 32.4203 28.8594V29.979C32.4203 30.3042 32.3809 30.619 32.307 30.9195ZM28.1812 24.432C28.5868 24.5995 29.0324 24.6921 29.5 24.6921C31.3813 24.6921 32.9064 23.194 32.9064 21.346C32.9064 19.4981 31.3813 18 29.5 18C29.4443 18 29.3889 18.0013 29.3338 18.0039C29.6759 18.7325 29.8671 19.5461 29.8671 20.4043C29.8671 21.9808 29.2219 23.4066 28.1812 24.432Z" fill="white"/>
<path fill-rule="evenodd" clip-rule="evenodd" d="M16.0739 30.9195C16.0194 30.9267 15.965 30.9341 15.9106 30.9417L15.6371 30.9801C14.4462 31.1472 13.3808 30.2396 13.3808 29.058V28.1562C13.3808 27.3112 13.9217 26.5573 14.7319 26.2731C15.6679 25.9447 16.6343 25.7309 17.6098 25.6317C16.5919 26.3676 15.9606 27.5593 15.9606 28.8594V29.979C15.9606 30.3042 15.9999 30.619 16.0739 30.9195ZM20.1997 24.432C19.7941 24.5995 19.3485 24.6921 18.8808 24.6921C16.9995 24.6921 15.4744 23.194 15.4744 21.346C15.4744 19.4981 16.9995 18 18.8808 18C18.9366 18 18.992 18.0013 19.0471 18.0039C18.705 18.7325 18.5138 19.5461 18.5138 20.4043C18.5138 21.9808 19.159 23.4066 20.1997 24.432Z" fill="white"/>
<path fill-rule="evenodd" clip-rule="evenodd" d="M28.3671 20.4043C28.3671 18.1099 26.5071 16.25 24.2128 16.25C21.9185 16.25 20.0586 18.1099 20.0586 20.4043C20.0586 22.6986 21.9185 24.5585 24.2128 24.5585C26.5071 24.5585 28.3671 22.6986 28.3671 20.4043Z" fill="#00FE8B"/>
<path fill-rule="evenodd" clip-rule="evenodd" d="M19.153 26.5215C22.425 25.3529 26.0006 25.3529 29.2727 26.5215C30.2607 26.8743 30.9203 27.8103 30.9203 28.8594V29.979C30.9203 31.446 29.621 32.5729 28.1687 32.3654L27.8351 32.3178C25.4325 31.9745 22.9932 31.9745 20.5905 32.3178L20.2569 32.3654C18.8047 32.5729 17.5054 31.446 17.5054 29.979V28.8594C17.5054 27.8103 18.1649 26.8743 19.153 26.5215Z" fill="#00FE8B"/>
</svg>
