<svg width="24" height="24" viewBox="0 0 24 24" fill="none" xmlns="http://www.w3.org/2000/svg">
<circle cx="3.40426" cy="3.40426" r="3.40426" transform="matrix(-1 0 0 1 15.617 5)" stroke="#16A8DD" stroke-width="2"/>
<path d="M6.25533 16.8594C6.25533 16.1272 6.71563 15.474 7.40519 15.2277V15.2277C10.5141 14.1174 13.9115 14.1174 17.0204 15.2277V15.2277C17.7099 15.474 18.1702 16.1272 18.1702 16.8594V17.979C18.1702 18.9896 17.2751 19.7659 16.2747 19.6229L15.9412 19.5753C13.4681 19.222 10.9574 19.222 8.48437 19.5753L8.15082 19.6229C7.15039 19.7659 6.25533 18.9896 6.25533 17.979V16.8594Z" stroke="#16A8DD" stroke-width="2"/>
<path d="M17.3192 11.9023C18.7964 11.9023 19.9939 10.7047 19.9939 9.22751C19.9939 7.75027 18.7964 6.55273 17.3192 6.55273" stroke="#16A8DD" stroke-width="2" stroke-linecap="round"/>
<path d="M20.2486 18.0046L20.5107 18.042C21.2967 18.1543 22 17.5444 22 16.7503V15.8707C22 15.2953 21.6383 14.7821 21.0965 14.5886C20.5561 14.3956 20.0045 14.2453 19.4468 14.1377" stroke="#16A8DD" stroke-width="2" stroke-linecap="round"/>
<path d="M6.68086 11.9023C5.20362 11.9023 4.00609 10.7047 4.00609 9.22751C4.00609 7.75027 5.20362 6.55273 6.68086 6.55273" stroke="#16A8DD" stroke-width="2" stroke-linecap="round"/>
<path d="M3.7514 18.0046L3.48932 18.042C2.70327 18.1543 2 17.5444 2 16.7503V15.8707C2 15.2953 2.36167 14.7821 2.90347 14.5886C3.44392 14.3956 3.99546 14.2453 4.55319 14.1377" stroke="#16A8DD" stroke-width="2" stroke-linecap="round"/>
</svg>
