<svg width="545" height="124" viewBox="0 0 545 124" fill="none" xmlns="http://www.w3.org/2000/svg">
<g filter="url(#filter0_f_582_15319)">
<rect x="4" y="4" width="537" height="116" rx="19" fill="white"/>
</g>
<path d="M61.6296 59.2447C61.4172 59.0006 61.15 58.8104 60.85 58.6894C60.5499 58.5685 60.2255 58.5203 59.9033 58.5489C59.629 58.5955 59.3711 58.7112 59.1538 58.8851C58.9365 59.059 58.767 59.2854 58.6614 59.5429L38.2188 100.36C38.0688 100.634 37.9935 100.944 38.0004 101.257C38.0074 101.57 38.0965 101.876 38.2587 102.144C38.4209 102.412 38.6505 102.633 38.9247 102.784C39.1989 102.935 39.5079 103.012 39.821 103.006H68.2368C68.5701 103.015 68.8987 102.927 69.183 102.752C69.4673 102.578 69.6951 102.325 69.8389 102.025C75.8003 89.6367 72.1117 70.4771 61.6296 59.2447Z" fill="#3465ED"/>
<path d="M119.815 100.372C119.43 99.6016 81.5629 23.8205 80.6439 21.9319C80.5202 21.6686 80.3282 21.4433 80.0879 21.2794C79.8477 21.1155 79.5679 21.019 79.2777 21H79.2156C78.8827 21.0147 78.5592 21.115 78.2764 21.2913C77.9935 21.4676 77.761 21.7139 77.6011 22.0064C67.3426 38.271 66.1751 57.9152 74.4962 74.54L88.1577 101.95C88.301 102.254 88.5276 102.511 88.8112 102.692C89.0948 102.872 89.4237 102.968 89.7598 102.969H118.213C118.518 102.966 118.817 102.887 119.083 102.737C119.348 102.588 119.571 102.373 119.732 102.113C119.892 101.854 119.983 101.558 119.998 101.253C120.012 100.949 119.95 100.646 119.815 100.372Z" fill="#3465ED"/>
<path d="M145.788 58H139.857L148.895 31.8182H156.028L165.054 58H159.122L152.564 37.8011H152.359L145.788 58ZM145.418 47.7088H159.429V52.0298H145.418V47.7088ZM180.695 49.6392V38.3636H186.141V58H180.913V54.4332H180.708C180.265 55.5838 179.528 56.5085 178.496 57.2074C177.474 57.9062 176.225 58.2557 174.751 58.2557C173.438 58.2557 172.283 57.9574 171.286 57.3608C170.289 56.7642 169.509 55.9162 168.947 54.8168C168.393 53.7173 168.112 52.4006 168.103 50.8665V38.3636H173.549V49.8949C173.558 51.054 173.869 51.9702 174.482 52.6435C175.096 53.3168 175.918 53.6534 176.95 53.6534C177.606 53.6534 178.219 53.5043 178.79 53.206C179.362 52.8991 179.822 52.4474 180.171 51.8509C180.529 51.2543 180.704 50.517 180.695 49.6392ZM200.942 38.3636V42.4545H189.117V38.3636H200.942ZM191.801 33.6591H197.248V51.9659C197.248 52.4687 197.324 52.8608 197.478 53.142C197.631 53.4148 197.844 53.6065 198.117 53.7173C198.398 53.8281 198.722 53.8835 199.088 53.8835C199.344 53.8835 199.6 53.8622 199.855 53.8196C200.111 53.7685 200.307 53.7301 200.444 53.7045L201.3 57.7571C201.027 57.8423 200.644 57.9403 200.15 58.0511C199.655 58.1705 199.054 58.2429 198.347 58.2685C197.034 58.3196 195.884 58.1449 194.895 57.7443C193.915 57.3437 193.152 56.7216 192.607 55.8778C192.061 55.0341 191.793 53.9687 191.801 52.6818V33.6591ZM210.358 46.6477V58H204.912V31.8182H210.204V41.8281H210.434C210.877 40.669 211.593 39.7614 212.582 39.1051C213.571 38.4403 214.811 38.108 216.302 38.108C217.666 38.108 218.855 38.4062 219.869 39.0028C220.892 39.5909 221.684 40.4389 222.247 41.5469C222.818 42.6463 223.099 43.9631 223.091 45.4972V58H217.645V46.4688C217.653 45.2585 217.346 44.3168 216.724 43.6435C216.11 42.9702 215.25 42.6335 214.142 42.6335C213.4 42.6335 212.744 42.7912 212.173 43.1065C211.61 43.4219 211.167 43.8821 210.843 44.4872C210.528 45.0838 210.366 45.804 210.358 46.6477ZM236.249 58.3835C234.263 58.3835 232.545 57.9616 231.097 57.1179C229.656 56.2656 228.544 55.081 227.76 53.5639C226.976 52.0384 226.584 50.2699 226.584 48.2585C226.584 46.2301 226.976 44.4574 227.76 42.9403C228.544 41.4148 229.656 40.2301 231.097 39.3864C232.545 38.5341 234.263 38.108 236.249 38.108C238.234 38.108 239.947 38.5341 241.388 39.3864C242.837 40.2301 243.953 41.4148 244.737 42.9403C245.521 44.4574 245.913 46.2301 245.913 48.2585C245.913 50.2699 245.521 52.0384 244.737 53.5639C243.953 55.081 242.837 56.2656 241.388 57.1179C239.947 57.9616 238.234 58.3835 236.249 58.3835ZM236.274 54.1648C237.178 54.1648 237.932 53.9091 238.537 53.3977C239.142 52.8778 239.598 52.1705 239.905 51.2756C240.22 50.3807 240.378 49.3622 240.378 48.2202C240.378 47.0781 240.22 46.0597 239.905 45.1648C239.598 44.2699 239.142 43.5625 238.537 43.0426C237.932 42.5227 237.178 42.2628 236.274 42.2628C235.362 42.2628 234.595 42.5227 233.973 43.0426C233.359 43.5625 232.895 44.2699 232.58 45.1648C232.273 46.0597 232.119 47.0781 232.119 48.2202C232.119 49.3622 232.273 50.3807 232.58 51.2756C232.895 52.1705 233.359 52.8778 233.973 53.3977C234.595 53.9091 235.362 54.1648 236.274 54.1648ZM249.455 58V38.3636H254.734V41.7898H254.939C255.297 40.571 255.898 39.6506 256.741 39.0284C257.585 38.3977 258.557 38.0824 259.656 38.0824C259.929 38.0824 260.223 38.0994 260.538 38.1335C260.854 38.1676 261.131 38.2145 261.369 38.2741V43.1065C261.114 43.0298 260.76 42.9616 260.308 42.902C259.857 42.8423 259.443 42.8125 259.068 42.8125C258.267 42.8125 257.551 42.9872 256.92 43.3366C256.298 43.6776 255.804 44.1548 255.438 44.7685C255.08 45.3821 254.901 46.0895 254.901 46.8906V58H249.455ZM264.185 58V38.3636H269.631V58H264.185ZM266.921 35.8324C266.111 35.8324 265.417 35.5639 264.837 35.027C264.266 34.4815 263.98 33.8295 263.98 33.071C263.98 32.321 264.266 31.6776 264.837 31.1406C265.417 30.5952 266.111 30.3224 266.921 30.3224C267.73 30.3224 268.421 30.5952 268.992 31.1406C269.571 31.6776 269.861 32.321 269.861 33.071C269.861 33.8295 269.571 34.4815 268.992 35.027C268.421 35.5639 267.73 35.8324 266.921 35.8324ZM273.891 58V54.7528L283.505 42.8509V42.7102H274.224V38.3636H290.063V41.9048L281.038 53.5128V53.6534H290.396V58H273.891ZM302.946 58.3835C300.926 58.3835 299.188 57.9744 297.73 57.1562C296.282 56.3295 295.165 55.1619 294.381 53.6534C293.597 52.1364 293.205 50.3423 293.205 48.2713C293.205 46.2514 293.597 44.4787 294.381 42.9531C295.165 41.4276 296.269 40.2386 297.692 39.3864C299.124 38.5341 300.803 38.108 302.729 38.108C304.025 38.108 305.23 38.3168 306.347 38.7344C307.472 39.1435 308.452 39.7614 309.287 40.5881C310.131 41.4148 310.787 42.4545 311.256 43.7074C311.725 44.9517 311.959 46.4091 311.959 48.0795V49.5753H295.378V46.2003H306.833C306.833 45.4162 306.662 44.7216 306.321 44.1165C305.98 43.5114 305.507 43.0384 304.902 42.6974C304.306 42.348 303.611 42.1733 302.819 42.1733C301.992 42.1733 301.259 42.3651 300.62 42.7486C299.989 43.1236 299.495 43.6307 299.137 44.2699C298.779 44.9006 298.596 45.6037 298.587 46.3793V49.5881C298.587 50.5597 298.766 51.3991 299.124 52.1065C299.49 52.8139 300.006 53.3594 300.671 53.7429C301.336 54.1264 302.124 54.3182 303.036 54.3182C303.641 54.3182 304.195 54.233 304.698 54.0625C305.201 53.892 305.631 53.6364 305.989 53.2955C306.347 52.9545 306.62 52.5369 306.807 52.0426L311.844 52.375C311.588 53.5852 311.064 54.642 310.272 55.5455C309.488 56.4403 308.473 57.1392 307.229 57.642C305.993 58.1364 304.566 58.3835 302.946 58.3835ZM322.749 58.3196C321.257 58.3196 319.907 57.9361 318.696 57.169C317.495 56.3935 316.54 55.2557 315.833 53.7557C315.134 52.2472 314.784 50.3977 314.784 48.2074C314.784 45.9574 315.147 44.0866 315.871 42.5952C316.596 41.0952 317.559 39.9744 318.76 39.233C319.971 38.483 321.296 38.108 322.736 38.108C323.836 38.108 324.752 38.2955 325.485 38.6705C326.226 39.0369 326.823 39.4972 327.275 40.0511C327.735 40.5966 328.084 41.1335 328.323 41.6619H328.489V31.8182H333.922V58H328.553V54.8551H328.323C328.067 55.4006 327.705 55.9418 327.236 56.4787C326.776 57.0071 326.175 57.446 325.434 57.7955C324.701 58.1449 323.806 58.3196 322.749 58.3196ZM324.475 53.9858C325.353 53.9858 326.094 53.7472 326.699 53.2699C327.313 52.7841 327.782 52.1065 328.105 51.2372C328.438 50.3679 328.604 49.3494 328.604 48.1818C328.604 47.0142 328.442 46 328.118 45.1392C327.794 44.2784 327.326 43.6136 326.712 43.1449C326.098 42.6761 325.353 42.4418 324.475 42.4418C323.58 42.4418 322.826 42.6847 322.212 43.1705C321.598 43.6562 321.134 44.3295 320.819 45.1903C320.503 46.0511 320.346 47.0483 320.346 48.1818C320.346 49.3239 320.503 50.3338 320.819 51.2116C321.142 52.081 321.607 52.7628 322.212 53.2571C322.826 53.7429 323.58 53.9858 324.475 53.9858ZM352.37 31.8182V58H346.834V31.8182H352.37ZM362.268 46.6477V58H356.822V38.3636H362.012V41.8281H362.242C362.677 40.6861 363.406 39.7827 364.428 39.1179C365.451 38.4446 366.691 38.108 368.148 38.108C369.512 38.108 370.701 38.4062 371.715 39.0028C372.729 39.5994 373.518 40.4517 374.08 41.5597C374.643 42.6591 374.924 43.9716 374.924 45.4972V58H369.478V46.4688C369.487 45.267 369.18 44.3295 368.558 43.6562C367.935 42.9744 367.079 42.6335 365.988 42.6335C365.255 42.6335 364.607 42.7912 364.045 43.1065C363.491 43.4219 363.056 43.8821 362.741 44.4872C362.434 45.0838 362.276 45.804 362.268 46.6477ZM395.554 43.9631L390.569 44.2699C390.483 43.8437 390.3 43.4602 390.019 43.1193C389.738 42.7699 389.367 42.4929 388.907 42.2884C388.455 42.0753 387.914 41.9688 387.283 41.9688C386.439 41.9688 385.728 42.1477 385.148 42.5057C384.569 42.8551 384.279 43.3239 384.279 43.9119C384.279 44.3807 384.466 44.777 384.841 45.1009C385.216 45.4247 385.86 45.6847 386.772 45.8807L390.326 46.5966C392.235 46.9886 393.658 47.6193 394.596 48.4886C395.533 49.358 396.002 50.5 396.002 51.9148C396.002 53.2017 395.623 54.331 394.864 55.3026C394.114 56.2741 393.083 57.0327 391.77 57.5781C390.466 58.1151 388.962 58.3835 387.257 58.3835C384.658 58.3835 382.587 57.8423 381.044 56.7599C379.51 55.669 378.611 54.1861 378.347 52.3111L383.703 52.0298C383.865 52.8224 384.257 53.4276 384.88 53.8452C385.502 54.2543 386.299 54.4588 387.27 54.4588C388.225 54.4588 388.992 54.2756 389.571 53.9091C390.159 53.5341 390.458 53.0526 390.466 52.4645C390.458 51.9702 390.249 51.5653 389.84 51.25C389.431 50.9261 388.8 50.679 387.948 50.5085L384.547 49.831C382.63 49.4474 381.202 48.7827 380.265 47.8366C379.336 46.8906 378.871 45.6847 378.871 44.2188C378.871 42.9574 379.212 41.8707 379.894 40.9588C380.584 40.0469 381.551 39.3438 382.796 38.8494C384.049 38.3551 385.515 38.108 387.194 38.108C389.674 38.108 391.625 38.6321 393.049 39.6804C394.48 40.7287 395.316 42.1562 395.554 43.9631ZM409.876 38.3636V42.4545H398.05V38.3636H409.876ZM400.735 33.6591H406.181V51.9659C406.181 52.4687 406.258 52.8608 406.411 53.142C406.565 53.4148 406.778 53.6065 407.05 53.7173C407.332 53.8281 407.656 53.8835 408.022 53.8835C408.278 53.8835 408.533 53.8622 408.789 53.8196C409.045 53.7685 409.241 53.7301 409.377 53.7045L410.234 57.7571C409.961 57.8423 409.577 57.9403 409.083 58.0511C408.589 58.1705 407.988 58.2429 407.281 58.2685C405.968 58.3196 404.817 58.1449 403.829 57.7443C402.849 57.3437 402.086 56.7216 401.54 55.8778C400.995 55.0341 400.727 53.9687 400.735 52.6818V33.6591ZM413.423 58V38.3636H418.703V41.7898H418.908C419.266 40.571 419.866 39.6506 420.71 39.0284C421.554 38.3977 422.526 38.0824 423.625 38.0824C423.898 38.0824 424.192 38.0994 424.507 38.1335C424.822 38.1676 425.099 38.2145 425.338 38.2741V43.1065C425.082 43.0298 424.729 42.9616 424.277 42.902C423.825 42.8423 423.412 42.8125 423.037 42.8125C422.236 42.8125 421.52 42.9872 420.889 43.3366C420.267 43.6776 419.773 44.1548 419.406 44.7685C419.048 45.3821 418.869 46.0895 418.869 46.8906V58H413.423ZM440.746 49.6392V38.3636H446.192V58H440.963V54.4332H440.759C440.316 55.5838 439.578 56.5085 438.547 57.2074C437.525 57.9062 436.276 58.2557 434.801 58.2557C433.489 58.2557 432.334 57.9574 431.337 57.3608C430.34 56.7642 429.56 55.9162 428.998 54.8168C428.444 53.7173 428.162 52.4006 428.154 50.8665V38.3636H433.6V49.8949C433.608 51.054 433.919 51.9702 434.533 52.6435C435.147 53.3168 435.969 53.6534 437 53.6534C437.657 53.6534 438.27 53.5043 438.841 53.206C439.412 52.8991 439.873 52.4474 440.222 51.8509C440.58 51.2543 440.755 50.517 440.746 49.6392ZM459.42 58.3835C457.409 58.3835 455.679 57.9574 454.23 57.1051C452.79 56.2443 451.682 55.0511 450.906 53.5256C450.139 52 449.756 50.2443 449.756 48.2585C449.756 46.2472 450.143 44.483 450.919 42.9659C451.703 41.4403 452.815 40.2514 454.256 39.3991C455.696 38.5384 457.409 38.108 459.395 38.108C461.108 38.108 462.608 38.419 463.895 39.0412C465.182 39.6634 466.2 40.5369 466.95 41.6619C467.7 42.7869 468.114 44.108 468.19 45.625H463.051C462.906 44.6449 462.523 43.8565 461.901 43.2599C461.287 42.6548 460.482 42.3523 459.484 42.3523C458.641 42.3523 457.903 42.5824 457.273 43.0426C456.651 43.4943 456.165 44.1548 455.815 45.0241C455.466 45.8935 455.291 46.946 455.291 48.1818C455.291 49.4347 455.462 50.5 455.803 51.3778C456.152 52.2557 456.642 52.9247 457.273 53.3849C457.903 53.8452 458.641 54.0753 459.484 54.0753C460.107 54.0753 460.665 53.9474 461.159 53.6918C461.662 53.4361 462.075 53.0653 462.399 52.5795C462.732 52.0852 462.949 51.4929 463.051 50.8026H468.19C468.105 52.3026 467.696 53.6236 466.963 54.7656C466.239 55.8991 465.237 56.7855 463.959 57.4247C462.68 58.0639 461.168 58.3835 459.42 58.3835ZM482.122 38.3636V42.4545H470.297V38.3636H482.122ZM472.981 33.6591H478.427V51.9659C478.427 52.4687 478.504 52.8608 478.657 53.142C478.811 53.4148 479.024 53.6065 479.297 53.7173C479.578 53.8281 479.902 53.8835 480.268 53.8835C480.524 53.8835 480.779 53.8622 481.035 53.8196C481.291 53.7685 481.487 53.7301 481.623 53.7045L482.48 57.7571C482.207 57.8423 481.824 57.9403 481.329 58.0511C480.835 58.1705 480.234 58.2429 479.527 58.2685C478.214 58.3196 477.064 58.1449 476.075 57.7443C475.095 57.3437 474.332 56.7216 473.787 55.8778C473.241 55.0341 472.973 53.9687 472.981 52.6818V33.6591ZM494.331 58.3835C492.345 58.3835 490.627 57.9616 489.179 57.1179C487.738 56.2656 486.626 55.081 485.842 53.5639C485.058 52.0384 484.666 50.2699 484.666 48.2585C484.666 46.2301 485.058 44.4574 485.842 42.9403C486.626 41.4148 487.738 40.2301 489.179 39.3864C490.627 38.5341 492.345 38.108 494.331 38.108C496.316 38.108 498.029 38.5341 499.47 39.3864C500.919 40.2301 502.035 41.4148 502.819 42.9403C503.603 44.4574 503.995 46.2301 503.995 48.2585C503.995 50.2699 503.603 52.0384 502.819 53.5639C502.035 55.081 500.919 56.2656 499.47 57.1179C498.029 57.9616 496.316 58.3835 494.331 58.3835ZM494.356 54.1648C495.26 54.1648 496.014 53.9091 496.619 53.3977C497.224 52.8778 497.68 52.1705 497.987 51.2756C498.302 50.3807 498.46 49.3622 498.46 48.2202C498.46 47.0781 498.302 46.0597 497.987 45.1648C497.68 44.2699 497.224 43.5625 496.619 43.0426C496.014 42.5227 495.26 42.2628 494.356 42.2628C493.444 42.2628 492.677 42.5227 492.055 43.0426C491.441 43.5625 490.977 44.2699 490.662 45.1648C490.355 46.0597 490.201 47.0781 490.201 48.2202C490.201 49.3622 490.355 50.3807 490.662 51.2756C490.977 52.1705 491.441 52.8778 492.055 53.3977C492.677 53.9091 493.444 54.1648 494.356 54.1648ZM507.537 58V38.3636H512.816V41.7898H513.021C513.379 40.571 513.98 39.6506 514.824 39.0284C515.667 38.3977 516.639 38.0824 517.738 38.0824C518.011 38.0824 518.305 38.0994 518.62 38.1335C518.936 38.1676 519.213 38.2145 519.451 38.2741V43.1065C519.196 43.0298 518.842 42.9616 518.39 42.902C517.939 42.8423 517.525 42.8125 517.15 42.8125C516.349 42.8125 515.633 42.9872 515.002 43.3366C514.38 43.6776 513.886 44.1548 513.52 44.7685C513.162 45.3821 512.983 46.0895 512.983 46.8906V58H507.537Z" fill="black"/>
<path d="M141.295 74.3636L144.534 83.8409H144.665L147.903 74.3636H149.801L145.614 86H143.585L139.398 74.3636H141.295ZM153.026 86.1932C152.473 86.1932 151.973 86.0909 151.526 85.8864C151.079 85.678 150.724 85.3769 150.463 84.983C150.205 84.589 150.077 84.1061 150.077 83.5341C150.077 83.0417 150.171 82.6364 150.361 82.3182C150.55 82 150.806 81.7481 151.128 81.5625C151.45 81.3769 151.81 81.2367 152.207 81.142C152.605 81.0473 153.01 80.9754 153.423 80.9261C153.946 80.8655 154.37 80.8163 154.696 80.7784C155.022 80.7367 155.259 80.6705 155.406 80.5795C155.554 80.4886 155.628 80.3409 155.628 80.1364V80.0966C155.628 79.6004 155.488 79.2159 155.207 78.9432C154.931 78.6705 154.518 78.5341 153.969 78.5341C153.397 78.5341 152.946 78.661 152.616 78.9148C152.291 79.1648 152.065 79.4432 151.94 79.75L150.344 79.3864C150.533 78.8561 150.81 78.428 151.173 78.1023C151.541 77.7727 151.963 77.5341 152.44 77.3864C152.918 77.2348 153.42 77.1591 153.946 77.1591C154.295 77.1591 154.664 77.2008 155.054 77.2841C155.448 77.3636 155.815 77.5114 156.156 77.7273C156.501 77.9432 156.783 78.2519 157.003 78.6534C157.223 79.0511 157.332 79.5682 157.332 80.2045V86H155.673V84.8068H155.605C155.495 85.0265 155.33 85.2424 155.111 85.4545C154.891 85.6667 154.609 85.8428 154.264 85.983C153.92 86.1231 153.507 86.1932 153.026 86.1932ZM153.395 84.8295C153.865 84.8295 154.266 84.7367 154.599 84.5511C154.937 84.3655 155.192 84.1231 155.366 83.8239C155.545 83.5208 155.634 83.197 155.634 82.8523V81.7273C155.573 81.7879 155.455 81.8447 155.281 81.8977C155.111 81.947 154.916 81.9905 154.696 82.0284C154.476 82.0625 154.262 82.0947 154.054 82.125C153.846 82.1515 153.671 82.1742 153.531 82.1932C153.202 82.2348 152.901 82.3049 152.628 82.4034C152.359 82.5019 152.143 82.6439 151.98 82.8295C151.821 83.0114 151.741 83.2538 151.741 83.5568C151.741 83.9773 151.897 84.2955 152.207 84.5114C152.518 84.7235 152.914 84.8295 153.395 84.8295ZM161.294 74.3636V86H159.595V74.3636H161.294ZM163.58 86V77.2727H165.278V86H163.58ZM164.438 75.9261C164.142 75.9261 163.888 75.8277 163.676 75.6307C163.468 75.4299 163.364 75.1913 163.364 74.9148C163.364 74.6345 163.468 74.3958 163.676 74.1989C163.888 73.9981 164.142 73.8977 164.438 73.8977C164.733 73.8977 164.985 73.9981 165.193 74.1989C165.405 74.3958 165.511 74.6345 165.511 74.9148C165.511 75.1913 165.405 75.4299 165.193 75.6307C164.985 75.8277 164.733 75.9261 164.438 75.9261ZM170.831 86.1705C170.126 86.1705 169.498 85.9905 168.945 85.6307C168.395 85.267 167.964 84.75 167.649 84.0795C167.339 83.4053 167.183 82.5966 167.183 81.6534C167.183 80.7102 167.34 79.9034 167.655 79.233C167.973 78.5625 168.409 78.0492 168.962 77.6932C169.515 77.3371 170.142 77.1591 170.842 77.1591C171.384 77.1591 171.82 77.25 172.149 77.4318C172.482 77.6098 172.74 77.8182 172.922 78.0568C173.107 78.2955 173.251 78.5057 173.354 78.6875H173.456V74.3636H175.155V86H173.496V84.642H173.354C173.251 84.8277 173.104 85.0398 172.911 85.2784C172.721 85.517 172.46 85.7254 172.126 85.9034C171.793 86.0814 171.361 86.1705 170.831 86.1705ZM171.206 84.7216C171.695 84.7216 172.107 84.5928 172.445 84.3352C172.786 84.0739 173.043 83.7121 173.217 83.25C173.395 82.7879 173.484 82.25 173.484 81.6364C173.484 81.0303 173.397 80.5 173.223 80.0455C173.049 79.5909 172.793 79.2367 172.456 78.983C172.119 78.7292 171.702 78.6023 171.206 78.6023C170.695 78.6023 170.268 78.7348 169.928 79C169.587 79.2652 169.329 79.6269 169.155 80.0852C168.984 80.5436 168.899 81.0606 168.899 81.6364C168.899 82.2197 168.986 82.7443 169.161 83.2102C169.335 83.6761 169.592 84.0455 169.933 84.3182C170.278 84.5871 170.702 84.7216 171.206 84.7216ZM187.342 82.3807V77.2727H189.047V86H187.376V84.4886H187.286C187.085 84.9545 186.763 85.3428 186.32 85.6534C185.88 85.9602 185.333 86.1136 184.678 86.1136C184.117 86.1136 183.621 85.9905 183.189 85.7443C182.761 85.4943 182.424 85.125 182.178 84.6364C181.935 84.1477 181.814 83.5436 181.814 82.8239V77.2727H183.513V82.6193C183.513 83.214 183.678 83.6875 184.007 84.0398C184.337 84.392 184.765 84.5682 185.291 84.5682C185.609 84.5682 185.926 84.4886 186.24 84.3295C186.558 84.1705 186.821 83.9299 187.03 83.608C187.242 83.286 187.346 82.8769 187.342 82.3807ZM193.028 80.8182V86H191.33V77.2727H192.96V78.6932H193.068C193.269 78.2311 193.583 77.8598 194.011 77.5795C194.443 77.2992 194.987 77.1591 195.642 77.1591C196.237 77.1591 196.758 77.2841 197.205 77.5341C197.652 77.7803 197.998 78.1477 198.244 78.6364C198.491 79.125 198.614 79.7292 198.614 80.4489V86H196.915V80.6534C196.915 80.0208 196.75 79.5265 196.42 79.1705C196.091 78.8106 195.638 78.6307 195.062 78.6307C194.669 78.6307 194.318 78.7159 194.011 78.8864C193.708 79.0568 193.468 79.3068 193.29 79.6364C193.116 79.9621 193.028 80.3561 193.028 80.8182ZM204.966 77.2727V78.6364H200.199V77.2727H204.966ZM201.477 75.1818H203.176V83.4375C203.176 83.767 203.225 84.0152 203.324 84.1818C203.422 84.3447 203.549 84.4564 203.705 84.517C203.864 84.5739 204.036 84.6023 204.222 84.6023C204.358 84.6023 204.477 84.5928 204.58 84.5739C204.682 84.5549 204.761 84.5398 204.818 84.5284L205.125 85.9318C205.027 85.9697 204.886 86.0076 204.705 86.0455C204.523 86.0871 204.295 86.1098 204.023 86.1136C203.576 86.1212 203.159 86.0417 202.773 85.875C202.386 85.7083 202.074 85.4508 201.835 85.1023C201.597 84.7538 201.477 84.3163 201.477 83.7898V75.1818ZM206.845 86V77.2727H208.544V86H206.845ZM207.703 75.9261C207.408 75.9261 207.154 75.8277 206.942 75.6307C206.733 75.4299 206.629 75.1913 206.629 74.9148C206.629 74.6345 206.733 74.3958 206.942 74.1989C207.154 73.9981 207.408 73.8977 207.703 73.8977C207.999 73.8977 208.25 73.9981 208.459 74.1989C208.671 74.3958 208.777 74.6345 208.777 74.9148C208.777 75.1913 208.671 75.4299 208.459 75.6307C208.25 75.8277 207.999 75.9261 207.703 75.9261ZM212.528 74.3636V86H210.83V74.3636H212.528ZM222.952 86H219.185V74.3636H223.071C224.211 74.3636 225.19 74.5966 226.009 75.0625C226.827 75.5246 227.454 76.1894 227.889 77.0568C228.329 77.9205 228.548 78.9564 228.548 80.1648C228.548 81.3769 228.327 82.4186 227.884 83.2898C227.444 84.161 226.808 84.8314 225.974 85.3011C225.141 85.767 224.134 86 222.952 86ZM220.94 84.4659H222.855C223.741 84.4659 224.478 84.2992 225.065 83.9659C225.652 83.6288 226.092 83.142 226.384 82.5057C226.675 81.8655 226.821 81.0852 226.821 80.1648C226.821 79.2519 226.675 78.4773 226.384 77.8409C226.096 77.2045 225.666 76.7216 225.094 76.392C224.522 76.0625 223.812 75.8977 222.963 75.8977H220.94V84.4659ZM234.357 86.1761C233.497 86.1761 232.756 85.9924 232.135 85.625C231.518 85.2538 231.04 84.733 230.703 84.0625C230.37 83.3883 230.203 82.5985 230.203 81.6932C230.203 80.7992 230.37 80.0114 230.703 79.3295C231.04 78.6477 231.51 78.1155 232.112 77.733C232.718 77.3504 233.427 77.1591 234.237 77.1591C234.73 77.1591 235.207 77.2405 235.669 77.4034C236.131 77.5663 236.546 77.822 236.913 78.1705C237.281 78.5189 237.571 78.9716 237.783 79.5284C237.995 80.0814 238.101 80.7538 238.101 81.5455V82.1477H231.163V80.875H236.436C236.436 80.428 236.345 80.0322 236.163 79.6875C235.982 79.339 235.726 79.0644 235.396 78.8636C235.071 78.6629 234.688 78.5625 234.249 78.5625C233.771 78.5625 233.355 78.6799 232.999 78.9148C232.646 79.1458 232.374 79.4489 232.18 79.8239C231.991 80.1951 231.896 80.5985 231.896 81.0341V82.0284C231.896 82.6117 231.999 83.108 232.203 83.517C232.411 83.9261 232.701 84.2386 233.072 84.4545C233.444 84.6667 233.877 84.7727 234.374 84.7727C234.696 84.7727 234.989 84.7273 235.254 84.6364C235.519 84.5417 235.749 84.4015 235.942 84.2159C236.135 84.0303 236.283 83.8011 236.385 83.5284L237.993 83.8182C237.864 84.2917 237.633 84.7064 237.3 85.0625C236.97 85.4148 236.555 85.6894 236.055 85.8864C235.559 86.0795 234.993 86.1761 234.357 86.1761ZM243.662 86.1761C242.817 86.1761 242.09 85.9848 241.48 85.6023C240.874 85.2159 240.408 84.6837 240.082 84.0057C239.757 83.3277 239.594 82.5511 239.594 81.6761C239.594 80.7898 239.76 80.0076 240.094 79.3295C240.427 78.6477 240.897 78.1155 241.503 77.733C242.109 77.3504 242.823 77.1591 243.645 77.1591C244.308 77.1591 244.899 77.2822 245.418 77.5284C245.937 77.7708 246.355 78.1117 246.673 78.5511C246.995 78.9905 247.187 79.5038 247.247 80.0909H245.594C245.503 79.6818 245.295 79.3295 244.969 79.0341C244.647 78.7386 244.215 78.5909 243.673 78.5909C243.2 78.5909 242.785 78.7159 242.429 78.9659C242.077 79.2121 241.802 79.5644 241.605 80.0227C241.408 80.4773 241.31 81.0152 241.31 81.6364C241.31 82.2727 241.406 82.822 241.599 83.2841C241.793 83.7462 242.065 84.1042 242.418 84.358C242.774 84.6117 243.192 84.7386 243.673 84.7386C243.995 84.7386 244.287 84.6799 244.548 84.5625C244.813 84.4413 245.035 84.2689 245.213 84.0455C245.395 83.822 245.522 83.553 245.594 83.2386H247.247C247.187 83.803 247.003 84.3068 246.696 84.75C246.389 85.1932 245.978 85.5417 245.463 85.7955C244.952 86.0492 244.351 86.1761 243.662 86.1761ZM252.825 86.1761C251.965 86.1761 251.225 85.9924 250.604 85.625C249.986 85.2538 249.509 84.733 249.172 84.0625C248.839 83.3883 248.672 82.5985 248.672 81.6932C248.672 80.7992 248.839 80.0114 249.172 79.3295C249.509 78.6477 249.979 78.1155 250.581 77.733C251.187 77.3504 251.895 77.1591 252.706 77.1591C253.198 77.1591 253.676 77.2405 254.138 77.4034C254.6 77.5663 255.015 77.822 255.382 78.1705C255.75 78.5189 256.039 78.9716 256.251 79.5284C256.464 80.0814 256.57 80.7538 256.57 81.5455V82.1477H249.632V80.875H254.905C254.905 80.428 254.814 80.0322 254.632 79.6875C254.45 79.339 254.195 79.0644 253.865 78.8636C253.539 78.6629 253.157 78.5625 252.717 78.5625C252.24 78.5625 251.823 78.6799 251.467 78.9148C251.115 79.1458 250.842 79.4489 250.649 79.8239C250.46 80.1951 250.365 80.5985 250.365 81.0341V82.0284C250.365 82.6117 250.467 83.108 250.672 83.517C250.88 83.9261 251.17 84.2386 251.541 84.4545C251.912 84.6667 252.346 84.7727 252.842 84.7727C253.164 84.7727 253.458 84.7273 253.723 84.6364C253.988 84.5417 254.217 84.4015 254.411 84.2159C254.604 84.0303 254.751 83.8011 254.854 83.5284L256.462 83.8182C256.333 84.2917 256.102 84.7064 255.768 85.0625C255.439 85.4148 255.024 85.6894 254.524 85.8864C254.028 86.0795 253.462 86.1761 252.825 86.1761ZM258.455 86V77.2727H260.085V78.6932H260.193C260.375 78.2121 260.672 77.8371 261.085 77.5682C261.498 77.2955 261.992 77.1591 262.568 77.1591C263.152 77.1591 263.64 77.2955 264.034 77.5682C264.432 77.8409 264.725 78.2159 264.915 78.6932H265.006C265.214 78.2273 265.545 77.8561 266 77.5795C266.455 77.2992 266.996 77.1591 267.625 77.1591C268.417 77.1591 269.062 77.4072 269.562 77.9034C270.066 78.3996 270.318 79.1477 270.318 80.1477V86H268.619V80.3068C268.619 79.7159 268.458 79.2879 268.136 79.0227C267.814 78.7576 267.43 78.625 266.983 78.625C266.43 78.625 266 78.7955 265.693 79.1364C265.386 79.4735 265.233 79.9072 265.233 80.4375V86H263.54V80.1989C263.54 79.7254 263.392 79.3447 263.097 79.0568C262.801 78.7689 262.417 78.625 261.943 78.625C261.621 78.625 261.324 78.7102 261.051 78.8807C260.782 79.0473 260.564 79.2803 260.398 79.5795C260.235 79.8788 260.153 80.2254 260.153 80.6193V86H258.455ZM272.732 86V74.3636H274.43V78.6875H274.533C274.631 78.5057 274.773 78.2955 274.959 78.0568C275.144 77.8182 275.402 77.6098 275.732 77.4318C276.061 77.25 276.497 77.1591 277.038 77.1591C277.743 77.1591 278.372 77.3371 278.925 77.6932C279.478 78.0492 279.911 78.5625 280.226 79.233C280.544 79.9034 280.703 80.7102 280.703 81.6534C280.703 82.5966 280.546 83.4053 280.232 84.0795C279.917 84.75 279.485 85.267 278.936 85.6307C278.387 85.9905 277.76 86.1705 277.055 86.1705C276.525 86.1705 276.091 86.0814 275.754 85.9034C275.421 85.7254 275.16 85.517 274.97 85.2784C274.781 85.0398 274.635 84.8277 274.533 84.642H274.391V86H272.732ZM274.396 81.6364C274.396 82.25 274.485 82.7879 274.663 83.25C274.841 83.7121 275.099 84.0739 275.436 84.3352C275.773 84.5928 276.186 84.7216 276.675 84.7216C277.182 84.7216 277.607 84.5871 277.947 84.3182C278.288 84.0455 278.546 83.6761 278.72 83.2102C278.898 82.7443 278.987 82.2197 278.987 81.6364C278.987 81.0606 278.9 80.5436 278.726 80.0852C278.555 79.6269 278.298 79.2652 277.953 79C277.612 78.7348 277.186 78.6023 276.675 78.6023C276.182 78.6023 275.766 78.7292 275.425 78.983C275.088 79.2367 274.832 79.5909 274.658 80.0455C274.483 80.5 274.396 81.0303 274.396 81.6364ZM286.372 86.1761C285.512 86.1761 284.772 85.9924 284.151 85.625C283.533 85.2538 283.056 84.733 282.719 84.0625C282.385 83.3883 282.219 82.5985 282.219 81.6932C282.219 80.7992 282.385 80.0114 282.719 79.3295C283.056 78.6477 283.526 78.1155 284.128 77.733C284.734 77.3504 285.442 77.1591 286.253 77.1591C286.745 77.1591 287.223 77.2405 287.685 77.4034C288.147 77.5663 288.562 77.822 288.929 78.1705C289.296 78.5189 289.586 78.9716 289.798 79.5284C290.01 80.0814 290.116 80.7538 290.116 81.5455V82.1477H283.179V80.875H288.452C288.452 80.428 288.361 80.0322 288.179 79.6875C287.997 79.339 287.741 79.0644 287.412 78.8636C287.086 78.6629 286.704 78.5625 286.264 78.5625C285.787 78.5625 285.37 78.6799 285.014 78.9148C284.662 79.1458 284.389 79.4489 284.196 79.8239C284.007 80.1951 283.912 80.5985 283.912 81.0341V82.0284C283.912 82.6117 284.014 83.108 284.219 83.517C284.427 83.9261 284.717 84.2386 285.088 84.4545C285.459 84.6667 285.893 84.7727 286.389 84.7727C286.711 84.7727 287.005 84.7273 287.27 84.6364C287.535 84.5417 287.764 84.4015 287.957 84.2159C288.151 84.0303 288.298 83.8011 288.401 83.5284L290.009 83.8182C289.88 84.2917 289.649 84.7064 289.315 85.0625C288.986 85.4148 288.571 85.6894 288.071 85.8864C287.575 86.0795 287.009 86.1761 286.372 86.1761ZM292.001 86V77.2727H293.643V78.6591H293.734C293.893 78.1894 294.174 77.8201 294.575 77.5511C294.981 77.2784 295.439 77.142 295.95 77.142C296.056 77.142 296.181 77.1458 296.325 77.1534C296.473 77.161 296.589 77.1705 296.672 77.1818V78.8068C296.604 78.7879 296.482 78.767 296.308 78.7443C296.134 78.7178 295.96 78.7045 295.786 78.7045C295.384 78.7045 295.026 78.7898 294.712 78.9602C294.401 79.1269 294.155 79.3598 293.973 79.6591C293.791 79.9545 293.7 80.2917 293.7 80.6705V86H292.001ZM302.354 86V84.7273L306.291 80.6477C306.712 80.2045 307.058 79.8163 307.331 79.483C307.607 79.1458 307.814 78.8258 307.95 78.5227C308.087 78.2197 308.155 77.8977 308.155 77.5568C308.155 77.1705 308.064 76.8371 307.882 76.5568C307.7 76.2727 307.452 76.0549 307.138 75.9034C306.823 75.7481 306.469 75.6705 306.075 75.6705C305.659 75.6705 305.295 75.7557 304.984 75.9261C304.674 76.0966 304.435 76.3371 304.268 76.6477C304.102 76.9583 304.018 77.322 304.018 77.7386H302.342C302.342 77.0303 302.505 76.411 302.831 75.8807C303.157 75.3504 303.604 74.9394 304.172 74.6477C304.74 74.3523 305.386 74.2045 306.109 74.2045C306.84 74.2045 307.484 74.3504 308.041 74.642C308.602 74.9299 309.039 75.3239 309.354 75.8239C309.668 76.3201 309.825 76.8807 309.825 77.5057C309.825 77.9375 309.744 78.3598 309.581 78.7727C309.422 79.1856 309.143 79.6458 308.746 80.1534C308.348 80.6572 307.795 81.2689 307.087 81.9886L304.774 84.4091V84.4943H310.013V86H302.354ZM316.217 86.1932C315.32 86.1894 314.553 85.9527 313.916 85.483C313.28 85.0133 312.793 84.3295 312.456 83.4318C312.119 82.5341 311.95 81.4527 311.95 80.1875C311.95 78.9261 312.119 77.8485 312.456 76.9545C312.797 76.0606 313.286 75.3788 313.922 74.9091C314.562 74.4394 315.327 74.2045 316.217 74.2045C317.107 74.2045 317.871 74.4413 318.507 74.9148C319.143 75.3845 319.63 76.0663 319.967 76.9602C320.308 77.8504 320.479 78.9261 320.479 80.1875C320.479 81.4564 320.31 82.5398 319.973 83.4375C319.636 84.3314 319.149 85.0152 318.513 85.4886C317.876 85.9583 317.111 86.1932 316.217 86.1932ZM316.217 84.6761C317.005 84.6761 317.621 84.2917 318.064 83.5227C318.511 82.7538 318.734 81.642 318.734 80.1875C318.734 79.2216 318.632 78.4053 318.428 77.7386C318.227 77.0682 317.937 76.5606 317.558 76.2159C317.183 75.8674 316.736 75.6932 316.217 75.6932C315.433 75.6932 314.818 76.0795 314.371 76.8523C313.924 77.625 313.698 78.7367 313.695 80.1875C313.695 81.1572 313.795 81.9773 313.996 82.6477C314.2 83.3144 314.49 83.8201 314.865 84.1648C315.24 84.5057 315.691 84.6761 316.217 84.6761ZM322.494 86V84.7273L326.432 80.6477C326.852 80.2045 327.199 79.8163 327.472 79.483C327.748 79.1458 327.955 78.8258 328.091 78.5227C328.227 78.2197 328.295 77.8977 328.295 77.5568C328.295 77.1705 328.205 76.8371 328.023 76.5568C327.841 76.2727 327.593 76.0549 327.278 75.9034C326.964 75.7481 326.61 75.6705 326.216 75.6705C325.799 75.6705 325.436 75.7557 325.125 75.9261C324.814 76.0966 324.576 76.3371 324.409 76.6477C324.242 76.9583 324.159 77.322 324.159 77.7386H322.483C322.483 77.0303 322.646 76.411 322.972 75.8807C323.297 75.3504 323.744 74.9394 324.312 74.6477C324.881 74.3523 325.527 74.2045 326.25 74.2045C326.981 74.2045 327.625 74.3504 328.182 74.642C328.742 74.9299 329.18 75.3239 329.494 75.8239C329.809 76.3201 329.966 76.8807 329.966 77.5057C329.966 77.9375 329.884 78.3598 329.722 78.7727C329.563 79.1856 329.284 79.6458 328.886 80.1534C328.489 80.6572 327.936 81.2689 327.227 81.9886L324.915 84.4091V84.4943H330.153V86H322.494ZM331.812 83.7273V82.3068L336.841 74.3636H337.96V76.4545H337.25L333.653 82.1477V82.2386H340.545V83.7273H331.812ZM337.33 86V83.2955L337.341 82.6477V74.3636H339.006V86H337.33Z" fill="#686666"/>
<defs>
<filter id="filter0_f_582_15319" x="0" y="0" width="545" height="124" filterUnits="userSpaceOnUse" color-interpolation-filters="sRGB">
<feFlood flood-opacity="0" result="BackgroundImageFix"/>
<feBlend mode="normal" in="SourceGraphic" in2="BackgroundImageFix" result="shape"/>
<feGaussianBlur stdDeviation="2" result="effect1_foregroundBlur_582_15319"/>
</filter>
</defs>
</svg>
