<svg width="1261" height="319" viewBox="0 0 1261 319" fill="none" xmlns="http://www.w3.org/2000/svg">
<path d="M1260.31 147H1159.96V42H1174.96V132H1260.31V147Z" fill="white"/>
<path d="M1144.41 147H1035.81V42H1144.41V57H1050.81V132H1144.41V147ZM1131.66 102H1058.31V87H1131.66V102Z" fill="white"/>
<path d="M1013.63 147H998.635V117H914.785V102H998.635V57H944.785C937.985 57 931.735 58.7 926.035 62.1C920.335 65.4 915.785 69.9 912.385 75.6C909.085 81.3 907.435 87.6 907.435 94.5V147H892.435V94.5C892.435 87.3 893.785 80.55 896.485 74.25C899.185 67.85 902.935 62.25 907.735 57.45C912.535 52.55 918.085 48.75 924.385 46.05C930.785 43.35 937.585 42 944.785 42H1013.63V147Z" fill="white"/>
<path d="M884.842 57H791.092V147H776.092V42H884.842V57ZM871.942 102H798.592V87H871.942V102Z" fill="white"/>
<path d="M753.912 147H738.912V117H655.062V102H738.912V57H685.062C678.262 57 672.012 58.7 666.312 62.1C660.612 65.4 656.062 69.9 652.662 75.6C649.362 81.3 647.712 87.6 647.712 94.5V147H632.712V94.5C632.712 87.3 634.062 80.55 636.762 74.25C639.462 67.85 643.212 62.25 648.012 57.45C652.812 52.55 658.362 48.75 664.662 46.05C671.062 43.35 677.862 42 685.062 42H753.912V147Z" fill="white"/>
<path d="M618.38 147H598.13L566.63 117H520.58V102.15H580.88C585.08 102.15 588.88 101.15 592.28 99.15C595.68 97.05 598.38 94.3 600.38 90.9C602.38 87.4 603.38 83.6 603.38 79.5C603.38 75.3 602.38 71.5 600.38 68.1C598.38 64.7 595.68 62 592.28 60C588.88 58 585.08 57 580.88 57H512.18V147H497.18V42H580.88C587.78 42 594.08 43.7 599.78 47.1C605.48 50.4 609.98 54.9 613.28 60.6C616.68 66.3 618.38 72.6 618.38 79.5C618.38 85.7 616.98 91.45 614.18 96.75C611.48 102.05 607.73 106.45 602.93 109.95C598.23 113.35 592.88 115.55 586.88 116.55L618.38 147Z" fill="white"/>
<path d="M481 94.5C481 101.8 479.85 108.65 477.55 115.05C475.25 121.35 471.95 126.9 467.65 131.7C463.45 136.5 458.4 140.25 452.5 142.95C446.6 145.65 440.05 147 432.85 147H397.9C390.6 147 384 145.65 378.1 142.95C372.2 140.25 367.1 136.5 362.8 131.7C358.6 126.9 355.35 121.35 353.05 115.05C350.75 108.65 349.6 101.8 349.6 94.5C349.6 87.3 350.75 80.55 353.05 74.25C355.35 67.85 358.6 62.25 362.8 57.45C367.1 52.55 372.2 48.75 378.1 46.05C384 43.35 390.6 42 397.9 42H432.85C440.05 42 446.6 43.35 452.5 46.05C458.4 48.75 463.45 52.55 467.65 57.45C471.95 62.25 475.25 67.85 477.55 74.25C479.85 80.55 481 87.3 481 94.5ZM466 94.5C466 87.6 464.65 81.3 461.95 75.6C459.35 69.9 455.55 65.4 450.55 62.1C445.65 58.7 439.75 57 432.85 57H397.9C391 57 385.05 58.7 380.05 62.1C375.15 65.4 371.35 69.9 368.65 75.6C365.95 81.3 364.6 87.6 364.6 94.5C364.6 101.4 365.95 107.7 368.65 113.4C371.35 119 375.15 123.5 380.05 126.9C385.05 130.3 391 132 397.9 132H432.85C439.75 132 445.65 130.3 450.55 126.9C455.55 123.5 459.35 119 461.95 113.4C464.65 107.7 466 101.4 466 94.5Z" fill="#17A8DD"/>
<path d="M1059.34 276H958.987V171H973.987V261H1059.34V276Z" fill="white"/>
<path d="M936.807 276H921.807V246H837.957V231H921.807V186H867.957C861.157 186 854.907 187.7 849.207 191.1C843.507 194.4 838.957 198.9 835.557 204.6C832.257 210.3 830.607 216.6 830.607 223.5V276H815.607V223.5C815.607 216.3 816.957 209.55 819.657 203.25C822.357 196.85 826.107 191.25 830.907 186.45C835.707 181.55 841.257 177.75 847.557 175.05C853.957 172.35 860.757 171 867.957 171H936.807V276Z" fill="white"/>
<path d="M795.27 276H780.27V171H795.27V276Z" fill="white"/>
<path d="M765.193 276H697.543C690.243 276 683.643 274.65 677.743 271.95C671.843 269.25 666.743 265.5 662.443 260.7C658.243 255.9 654.993 250.35 652.693 244.05C650.393 237.65 649.243 230.8 649.243 223.5C649.243 216.3 650.393 209.55 652.693 203.25C654.993 196.85 658.243 191.25 662.443 186.45C666.743 181.55 671.843 177.75 677.743 175.05C683.643 172.35 690.243 171 697.543 171H765.193V186H697.543C690.643 186 684.693 187.7 679.693 191.1C674.793 194.4 670.993 198.9 668.293 204.6C665.593 210.3 664.243 216.6 664.243 223.5C664.243 230.4 665.593 236.7 668.293 242.4C670.993 248 674.793 252.5 679.693 255.9C684.693 259.3 690.643 261 697.543 261H765.193V276Z" fill="white"/>
<path d="M633.106 276H618.106V171H633.106V276Z" fill="white"/>
<path d="M605.93 186H512.18V276H497.18V171H605.93V186ZM593.03 231H519.68V216H593.03V231Z" fill="white"/>
<path d="M481 223.5C481 230.8 479.85 237.65 477.55 244.05C475.25 250.35 471.95 255.9 467.65 260.7C463.45 265.5 458.4 269.25 452.5 271.95C446.6 274.65 440.05 276 432.85 276H397.9C390.6 276 384 274.65 378.1 271.95C372.2 269.25 367.1 265.5 362.8 260.7C358.6 255.9 355.35 250.35 353.05 244.05C350.75 237.65 349.6 230.8 349.6 223.5C349.6 216.3 350.75 209.55 353.05 203.25C355.35 196.85 358.6 191.25 362.8 186.45C367.1 181.55 372.2 177.75 378.1 175.05C384 172.35 390.6 171 397.9 171H432.85C440.05 171 446.6 172.35 452.5 175.05C458.4 177.75 463.45 181.55 467.65 186.45C471.95 191.25 475.25 196.85 477.55 203.25C479.85 209.55 481 216.3 481 223.5ZM466 223.5C466 216.6 464.65 210.3 461.95 204.6C459.35 198.9 455.55 194.4 450.55 191.1C445.65 187.7 439.75 186 432.85 186H397.9C391 186 385.05 187.7 380.05 191.1C375.15 194.4 371.35 198.9 368.65 204.6C365.95 210.3 364.6 216.6 364.6 223.5C364.6 230.4 365.95 236.7 368.65 242.4C371.35 248 375.15 252.5 380.05 255.9C385.05 259.3 391 261 397.9 261H432.85C439.75 261 445.65 259.3 450.55 255.9C455.55 252.5 459.35 248 461.95 242.4C464.65 236.7 466 230.4 466 223.5Z" fill="#F1CD30"/>
<path d="M118.109 291.815C84.9135 290.787 19.3515 264.326 22.6663 166.711" stroke="#17A8DD" stroke-width="14"/>
<path d="M254.093 172.655C260.324 205.276 248.789 275.029 152.798 293.07" stroke="#4FB436" stroke-width="14"/>
<path d="M197.209 37.7169C230.373 39.4861 295.328 67.4036 289.836 164.92" stroke="#F1CD30" stroke-width="14"/>
<circle cx="24.8067" cy="147.848" r="24.8067" fill="#EC3E53"/>
<path d="M25.8928 133.395C30.4431 100.497 63.721 38.1185 160.431 51.7873" stroke="#EC3E53" stroke-width="14"/>
<circle cx="134.006" cy="291.446" r="24.8067" transform="rotate(-96.6243 134.006 291.446)" fill="#17A8DD"/>
<circle cx="251.093" cy="157.159" r="24.8067" transform="rotate(-96.6243 251.093 157.159)" fill="#4FB436"/>
<circle cx="194.865" cy="27.5027" r="24.8067" transform="rotate(-96.6243 194.865 27.5027)" fill="#F1CD30"/>
</svg>
